<svg width="991" height="82" viewBox="0 0 991 82" fill="none" xmlns="http://www.w3.org/2000/svg">
<rect y="7" width="976" height="27" rx="2" fill="#404950"/>
<rect x="31" y="19" width="915" height="2" fill="#72828E"/>
<circle cx="31" cy="20" r="5" fill="#FFEE2E"/>
<circle cx="161" cy="20" r="5" fill="#FFEE2E"/>
<circle cx="291" cy="20" r="5" fill="#FFEE2E"/>
<circle cx="421" cy="20" r="5" fill="#FFEE2E"/>
<circle cx="551" cy="19" r="5" fill="#FFEE2E"/>
<circle cx="681" cy="21" r="5" fill="#FFEE2E"/>
<circle cx="811" cy="20" r="5" fill="#FFEE2E"/>
<circle cx="941" cy="20" r="5" fill="#FFEE2E"/>
<path fill-rule="evenodd" clip-rule="evenodd" d="M302.477 19.9999C302.477 26.3438 297.344 31.4769 291 31.4769C284.657 31.4769 279.523 26.3438 279.523 19.9999C279.523 13.6561 284.657 8.52295 291 8.52295C297.344 8.52295 302.477 13.6561 302.477 19.9999ZM291 10.3147C296.376 10.3147 300.734 14.6246 300.734 19.9999C300.734 25.3752 296.376 29.7336 291 29.7336C285.625 29.7336 281.315 25.3752 281.315 19.9999C281.315 14.6246 285.625 10.3147 291 10.3147Z" fill="#FE9013"/>
<path fill-rule="evenodd" clip-rule="evenodd" d="M291 0C302.041 0 311 8.95884 311 20C311 31.0412 302.041 40 291 40C279.959 40 271 31.0412 271 20C271 8.95884 279.959 0 291 0ZM291 1.79177C301.073 1.79177 309.257 9.92736 309.257 20C309.257 30.0726 301.073 38.2567 291 38.2567C280.927 38.2567 272.792 30.0726 272.792 20C272.792 9.92736 280.927 1.79177 291 1.79177Z" fill="#FE9013"/>
<path d="M268.078 61.2597C267.662 60.8701 267.247 60.5844 266.857 60.3766C266.468 60.1948 266.026 60.0909 265.532 60.0909C264.961 60.0909 264.545 60.2208 264.26 60.4545C263.974 60.6883 263.818 61.0779 263.818 61.5974C263.818 61.961 263.974 62.2987 264.286 62.5325C264.597 62.7922 264.961 63.026 265.429 63.2597C265.896 63.4935 266.39 63.7273 266.909 63.987C267.429 64.2468 267.922 64.5325 268.39 64.8961C268.857 65.2597 269.221 65.6753 269.532 66.1948C269.844 66.7143 270 67.3377 270 68.0649C270 69.1818 269.688 70.1429 269.091 70.9481C268.494 71.7532 267.558 72.2727 266.364 72.5584V75H264.104V72.6623C263.429 72.5844 262.701 72.4026 261.948 72.0909C261.195 71.7792 260.545 71.3896 260 70.8961L261.506 68.5844C262.104 69.026 262.675 69.3636 263.195 69.5974C263.74 69.8312 264.286 69.9351 264.831 69.9351C265.481 69.9351 265.974 69.8052 266.26 69.5455C266.571 69.2857 266.727 68.8701 266.727 68.3247C266.727 67.9091 266.571 67.5714 266.26 67.2857C265.948 67 265.584 66.7403 265.117 66.4805C264.649 66.2208 264.156 65.961 263.636 65.7013C263.117 65.4416 262.623 65.1299 262.156 64.7662C261.688 64.4026 261.325 63.987 261.013 63.4935C260.701 63 260.545 62.4286 260.545 61.7273C260.545 60.5844 260.857 59.6234 261.481 58.8701C262.104 58.1169 262.987 57.6234 264.078 57.4156V55H266.338V57.3636C267.091 57.4675 267.74 57.7013 268.312 58.039C268.883 58.3766 269.377 58.7922 269.844 59.2857L268.078 61.2597Z" fill="#FE9013"/>
<path d="M281.737 73H278.665V58.1592L274.133 59.708V57.1055L281.344 54.4521H281.737V73ZM300.209 65.2178C300.209 67.8753 299.71 69.8812 298.711 71.2354C297.721 72.5811 296.21 73.2539 294.179 73.2539C292.181 73.2539 290.675 72.598 289.659 71.2861C288.652 69.9658 288.136 68.015 288.11 65.4336V62.2344C288.11 59.5768 288.605 57.5837 289.596 56.2549C290.594 54.9261 292.114 54.2617 294.153 54.2617C296.176 54.2617 297.683 54.9092 298.673 56.2041C299.672 57.499 300.184 59.4372 300.209 62.0186V65.2178ZM297.124 61.7646C297.124 60.0296 296.887 58.7601 296.413 57.9561C295.939 57.1436 295.186 56.7373 294.153 56.7373C293.146 56.7373 292.406 57.1224 291.932 57.8926C291.458 58.6543 291.208 59.8477 291.183 61.4727V65.6621C291.183 67.3887 291.424 68.6751 291.906 69.5215C292.389 70.3678 293.146 70.791 294.179 70.791C295.169 70.791 295.901 70.4017 296.375 69.623C296.849 68.8359 297.099 67.6087 297.124 65.9414V61.7646ZM314.986 65.2178C314.986 67.8753 314.487 69.8812 313.488 71.2354C312.498 72.5811 310.987 73.2539 308.956 73.2539C306.959 73.2539 305.452 72.598 304.437 71.2861C303.429 69.9658 302.913 68.015 302.888 65.4336V62.2344C302.888 59.5768 303.383 57.5837 304.373 56.2549C305.372 54.9261 306.891 54.2617 308.931 54.2617C310.953 54.2617 312.46 54.9092 313.45 56.2041C314.449 57.499 314.961 59.4372 314.986 62.0186V65.2178ZM311.901 61.7646C311.901 60.0296 311.664 58.7601 311.19 57.9561C310.716 57.1436 309.963 56.7373 308.931 56.7373C307.924 56.7373 307.183 57.1224 306.709 57.8926C306.235 58.6543 305.985 59.8477 305.96 61.4727V65.6621C305.96 67.3887 306.201 68.6751 306.684 69.5215C307.166 70.3678 307.924 70.791 308.956 70.791C309.946 70.791 310.678 70.4017 311.152 69.623C311.626 68.8359 311.876 67.6087 311.901 65.9414V61.7646ZM329.764 65.2178C329.764 67.8753 329.264 69.8812 328.266 71.2354C327.275 72.5811 325.765 73.2539 323.733 73.2539C321.736 73.2539 320.229 72.598 319.214 71.2861C318.207 69.9658 317.69 68.015 317.665 65.4336V62.2344C317.665 59.5768 318.16 57.5837 319.15 56.2549C320.149 54.9261 321.668 54.2617 323.708 54.2617C325.731 54.2617 327.237 54.9092 328.228 56.2041C329.226 57.499 329.738 59.4372 329.764 62.0186V65.2178ZM326.679 61.7646C326.679 60.0296 326.442 58.7601 325.968 57.9561C325.494 57.1436 324.741 56.7373 323.708 56.7373C322.701 56.7373 321.96 57.1224 321.486 57.8926C321.012 58.6543 320.763 59.8477 320.737 61.4727V65.6621C320.737 67.3887 320.979 68.6751 321.461 69.5215C321.943 70.3678 322.701 70.791 323.733 70.791C324.724 70.791 325.456 70.4017 325.93 69.623C326.404 68.8359 326.653 67.6087 326.679 65.9414V61.7646Z" fill="#FE9013"/>
<path d="M398.078 61.2597C397.662 60.8701 397.247 60.5844 396.857 60.3766C396.468 60.1948 396.026 60.0909 395.532 60.0909C394.961 60.0909 394.545 60.2208 394.26 60.4545C393.974 60.6883 393.818 61.0779 393.818 61.5974C393.818 61.961 393.974 62.2987 394.286 62.5325C394.597 62.7922 394.961 63.026 395.429 63.2597C395.896 63.4935 396.39 63.7273 396.909 63.987C397.429 64.2468 397.922 64.5325 398.39 64.8961C398.857 65.2597 399.221 65.6753 399.532 66.1948C399.844 66.7143 400 67.3377 400 68.0649C400 69.1818 399.688 70.1429 399.091 70.9481C398.494 71.7532 397.558 72.2727 396.364 72.5584V75H394.104V72.6623C393.429 72.5844 392.701 72.4026 391.948 72.0909C391.195 71.7792 390.545 71.3896 390 70.8961L391.506 68.5844C392.104 69.026 392.675 69.3636 393.195 69.5974C393.74 69.8312 394.286 69.9351 394.831 69.9351C395.481 69.9351 395.974 69.8052 396.26 69.5455C396.571 69.2857 396.727 68.8701 396.727 68.3247C396.727 67.9091 396.571 67.5714 396.26 67.2857C395.948 67 395.584 66.7403 395.117 66.4805C394.649 66.2208 394.156 65.961 393.636 65.7013C393.117 65.4416 392.623 65.1299 392.156 64.7662C391.688 64.4026 391.325 63.987 391.013 63.4935C390.701 63 390.545 62.4286 390.545 61.7273C390.545 60.5844 390.857 59.6234 391.481 58.8701C392.104 58.1169 392.987 57.6234 394.078 57.4156V55H396.338V57.3636C397.091 57.4675 397.74 57.7013 398.312 58.039C398.883 58.3766 399.377 58.7922 399.844 59.2857L398.078 61.2597Z" fill="#333B41"/>
<path d="M404.209 63.834L405.212 54.5156H415.14V57.1816H407.776L407.269 61.5996C408.123 61.1087 409.088 60.8633 410.163 60.8633C411.924 60.8633 413.29 61.4261 414.264 62.5518C415.245 63.6774 415.736 65.1924 415.736 67.0967C415.736 68.9756 415.195 70.4736 414.111 71.5908C413.028 72.6995 411.543 73.2539 409.655 73.2539C407.963 73.2539 406.558 72.7757 405.44 71.8193C404.332 70.8545 403.731 69.585 403.638 68.0107H406.621C406.74 68.9079 407.061 69.5977 407.586 70.0801C408.111 70.554 408.796 70.791 409.643 70.791C410.59 70.791 411.327 70.4525 411.852 69.7754C412.385 69.0983 412.651 68.1758 412.651 67.0078C412.651 65.8822 412.359 64.9935 411.775 64.3418C411.191 63.6816 410.387 63.3516 409.363 63.3516C408.805 63.3516 408.331 63.4277 407.941 63.5801C407.552 63.724 407.129 64.0117 406.672 64.4434L404.209 63.834ZM430.209 65.2178C430.209 67.8753 429.71 69.8812 428.711 71.2354C427.721 72.5811 426.21 73.2539 424.179 73.2539C422.181 73.2539 420.675 72.598 419.659 71.2861C418.652 69.9658 418.136 68.015 418.11 65.4336V62.2344C418.11 59.5768 418.605 57.5837 419.596 56.2549C420.594 54.9261 422.114 54.2617 424.153 54.2617C426.176 54.2617 427.683 54.9092 428.673 56.2041C429.672 57.499 430.184 59.4372 430.209 62.0186V65.2178ZM427.124 61.7646C427.124 60.0296 426.887 58.7601 426.413 57.9561C425.939 57.1436 425.186 56.7373 424.153 56.7373C423.146 56.7373 422.406 57.1224 421.932 57.8926C421.458 58.6543 421.208 59.8477 421.183 61.4727V65.6621C421.183 67.3887 421.424 68.6751 421.906 69.5215C422.389 70.3678 423.146 70.791 424.179 70.791C425.169 70.791 425.901 70.4017 426.375 69.623C426.849 68.8359 427.099 67.6087 427.124 65.9414V61.7646ZM444.986 65.2178C444.986 67.8753 444.487 69.8812 443.488 71.2354C442.498 72.5811 440.987 73.2539 438.956 73.2539C436.959 73.2539 435.452 72.598 434.437 71.2861C433.429 69.9658 432.913 68.015 432.888 65.4336V62.2344C432.888 59.5768 433.383 57.5837 434.373 56.2549C435.372 54.9261 436.891 54.2617 438.931 54.2617C440.953 54.2617 442.46 54.9092 443.45 56.2041C444.449 57.499 444.961 59.4372 444.986 62.0186V65.2178ZM441.901 61.7646C441.901 60.0296 441.664 58.7601 441.19 57.9561C440.716 57.1436 439.963 56.7373 438.931 56.7373C437.924 56.7373 437.183 57.1224 436.709 57.8926C436.235 58.6543 435.985 59.8477 435.96 61.4727V65.6621C435.96 67.3887 436.201 68.6751 436.684 69.5215C437.166 70.3678 437.924 70.791 438.956 70.791C439.946 70.791 440.678 70.4017 441.152 69.623C441.626 68.8359 441.876 67.6087 441.901 65.9414V61.7646Z" fill="#333B41"/>
<path d="M528.078 61.2597C527.662 60.8701 527.247 60.5844 526.857 60.3766C526.468 60.1948 526.026 60.0909 525.532 60.0909C524.961 60.0909 524.545 60.2208 524.26 60.4545C523.974 60.6883 523.818 61.0779 523.818 61.5974C523.818 61.961 523.974 62.2987 524.286 62.5325C524.597 62.7922 524.961 63.026 525.429 63.2597C525.896 63.4935 526.39 63.7273 526.909 63.987C527.429 64.2468 527.922 64.5325 528.39 64.8961C528.857 65.2597 529.221 65.6753 529.532 66.1948C529.844 66.7143 530 67.3377 530 68.0649C530 69.1818 529.688 70.1429 529.091 70.9481C528.494 71.7532 527.558 72.2727 526.364 72.5584V75H524.104V72.6623C523.429 72.5844 522.701 72.4026 521.948 72.0909C521.195 71.7792 520.545 71.3896 520 70.8961L521.506 68.5844C522.104 69.026 522.675 69.3636 523.195 69.5974C523.74 69.8312 524.286 69.9351 524.831 69.9351C525.481 69.9351 525.974 69.8052 526.26 69.5455C526.571 69.2857 526.727 68.8701 526.727 68.3247C526.727 67.9091 526.571 67.5714 526.26 67.2857C525.948 67 525.584 66.7403 525.117 66.4805C524.649 66.2208 524.156 65.961 523.636 65.7013C523.117 65.4416 522.623 65.1299 522.156 64.7662C521.688 64.4026 521.325 63.987 521.013 63.4935C520.701 63 520.545 62.4286 520.545 61.7273C520.545 60.5844 520.857 59.6234 521.481 58.8701C522.104 58.1169 522.987 57.6234 524.078 57.4156V55H526.338V57.3636C527.091 57.4675 527.74 57.7013 528.312 58.039C528.883 58.3766 529.377 58.7922 529.844 59.2857L528.078 61.2597Z" fill="#333B41"/>
<path d="M545.812 73H533.384V70.8799L539.541 64.1641C540.43 63.1738 541.06 62.3486 541.433 61.6885C541.813 61.0199 542.004 60.3512 542.004 59.6826C542.004 58.8024 541.754 58.0915 541.255 57.5498C540.764 57.0081 540.1 56.7373 539.262 56.7373C538.263 56.7373 537.489 57.042 536.938 57.6514C536.388 58.2607 536.113 59.0944 536.113 60.1523H533.028C533.028 59.0267 533.282 58.0153 533.79 57.1182C534.306 56.2126 535.038 55.5101 535.986 55.0107C536.943 54.5114 538.043 54.2617 539.287 54.2617C541.081 54.2617 542.495 54.7145 543.527 55.6201C544.568 56.5173 545.089 57.7614 545.089 59.3525C545.089 60.2751 544.826 61.2441 544.302 62.2598C543.785 63.2669 542.935 64.4137 541.75 65.7002L537.23 70.5371H545.812V73ZM548.986 63.834L549.989 54.5156H559.917V57.1816H552.554L552.046 61.5996C552.901 61.1087 553.866 60.8633 554.94 60.8633C556.701 60.8633 558.068 61.4261 559.041 62.5518C560.023 63.6774 560.514 65.1924 560.514 67.0967C560.514 68.9756 559.972 70.4736 558.889 71.5908C557.805 72.6995 556.32 73.2539 554.433 73.2539C552.74 73.2539 551.335 72.7757 550.218 71.8193C549.109 70.8545 548.508 69.585 548.415 68.0107H551.398C551.517 68.9079 551.839 69.5977 552.363 70.0801C552.888 70.554 553.574 70.791 554.42 70.791C555.368 70.791 556.104 70.4525 556.629 69.7754C557.162 69.0983 557.429 68.1758 557.429 67.0078C557.429 65.8822 557.137 64.9935 556.553 64.3418C555.969 63.6816 555.165 63.3516 554.141 63.3516C553.582 63.3516 553.108 63.4277 552.719 63.5801C552.329 63.724 551.906 64.0117 551.449 64.4434L548.986 63.834ZM574.986 65.2178C574.986 67.8753 574.487 69.8812 573.488 71.2354C572.498 72.5811 570.987 73.2539 568.956 73.2539C566.959 73.2539 565.452 72.598 564.437 71.2861C563.429 69.9658 562.913 68.015 562.888 65.4336V62.2344C562.888 59.5768 563.383 57.5837 564.373 56.2549C565.372 54.9261 566.891 54.2617 568.931 54.2617C570.953 54.2617 572.46 54.9092 573.45 56.2041C574.449 57.499 574.961 59.4372 574.986 62.0186V65.2178ZM571.901 61.7646C571.901 60.0296 571.664 58.7601 571.19 57.9561C570.716 57.1436 569.963 56.7373 568.931 56.7373C567.924 56.7373 567.183 57.1224 566.709 57.8926C566.235 58.6543 565.985 59.8477 565.96 61.4727V65.6621C565.96 67.3887 566.201 68.6751 566.684 69.5215C567.166 70.3678 567.924 70.791 568.956 70.791C569.946 70.791 570.678 70.4017 571.152 69.623C571.626 68.8359 571.876 67.6087 571.901 65.9414V61.7646Z" fill="#333B41"/>
<path d="M658.078 61.2597C657.662 60.8701 657.247 60.5844 656.857 60.3766C656.468 60.1948 656.026 60.0909 655.532 60.0909C654.961 60.0909 654.545 60.2208 654.26 60.4545C653.974 60.6883 653.818 61.0779 653.818 61.5974C653.818 61.961 653.974 62.2987 654.286 62.5325C654.597 62.7922 654.961 63.026 655.429 63.2597C655.896 63.4935 656.39 63.7273 656.909 63.987C657.429 64.2468 657.922 64.5325 658.39 64.8961C658.857 65.2597 659.221 65.6753 659.532 66.1948C659.844 66.7143 660 67.3377 660 68.0649C660 69.1818 659.688 70.1429 659.091 70.9481C658.494 71.7532 657.558 72.2727 656.364 72.5584V75H654.104V72.6623C653.429 72.5844 652.701 72.4026 651.948 72.0909C651.195 71.7792 650.545 71.3896 650 70.8961L651.506 68.5844C652.104 69.026 652.675 69.3636 653.195 69.5974C653.74 69.8312 654.286 69.9351 654.831 69.9351C655.481 69.9351 655.974 69.8052 656.26 69.5455C656.571 69.2857 656.727 68.8701 656.727 68.3247C656.727 67.9091 656.571 67.5714 656.26 67.2857C655.948 67 655.584 66.7403 655.117 66.4805C654.649 66.2208 654.156 65.961 653.636 65.7013C653.117 65.4416 652.623 65.1299 652.156 64.7662C651.688 64.4026 651.325 63.987 651.013 63.4935C650.701 63 650.545 62.4286 650.545 61.7273C650.545 60.5844 650.857 59.6234 651.481 58.8701C652.104 58.1169 652.987 57.6234 654.078 57.4156V55H656.338V57.3636C657.091 57.4675 657.74 57.7013 658.312 58.039C658.883 58.3766 659.377 58.7922 659.844 59.2857L658.078 61.2597Z" fill="#333B41"/>
<path d="M671.737 73H668.665V58.1592L664.133 59.708V57.1055L671.344 54.4521H671.737V73ZM690.209 65.2178C690.209 67.8753 689.71 69.8812 688.711 71.2354C687.721 72.5811 686.21 73.2539 684.179 73.2539C682.181 73.2539 680.675 72.598 679.659 71.2861C678.652 69.9658 678.136 68.015 678.11 65.4336V62.2344C678.11 59.5768 678.605 57.5837 679.596 56.2549C680.594 54.9261 682.114 54.2617 684.153 54.2617C686.176 54.2617 687.683 54.9092 688.673 56.2041C689.672 57.499 690.184 59.4372 690.209 62.0186V65.2178ZM687.124 61.7646C687.124 60.0296 686.887 58.7601 686.413 57.9561C685.939 57.1436 685.186 56.7373 684.153 56.7373C683.146 56.7373 682.406 57.1224 681.932 57.8926C681.458 58.6543 681.208 59.8477 681.183 61.4727V65.6621C681.183 67.3887 681.424 68.6751 681.906 69.5215C682.389 70.3678 683.146 70.791 684.179 70.791C685.169 70.791 685.901 70.4017 686.375 69.623C686.849 68.8359 687.099 67.6087 687.124 65.9414V61.7646ZM704.986 65.2178C704.986 67.8753 704.487 69.8812 703.488 71.2354C702.498 72.5811 700.987 73.2539 698.956 73.2539C696.959 73.2539 695.452 72.598 694.437 71.2861C693.429 69.9658 692.913 68.015 692.888 65.4336V62.2344C692.888 59.5768 693.383 57.5837 694.373 56.2549C695.372 54.9261 696.891 54.2617 698.931 54.2617C700.953 54.2617 702.46 54.9092 703.45 56.2041C704.449 57.499 704.961 59.4372 704.986 62.0186V65.2178ZM701.901 61.7646C701.901 60.0296 701.664 58.7601 701.19 57.9561C700.716 57.1436 699.963 56.7373 698.931 56.7373C697.924 56.7373 697.183 57.1224 696.709 57.8926C696.235 58.6543 695.985 59.8477 695.96 61.4727V65.6621C695.96 67.3887 696.201 68.6751 696.684 69.5215C697.166 70.3678 697.924 70.791 698.956 70.791C699.946 70.791 700.678 70.4017 701.152 69.623C701.626 68.8359 701.876 67.6087 701.901 65.9414V61.7646Z" fill="#333B41"/>
<path d="M788.078 61.2597C787.662 60.8701 787.247 60.5844 786.857 60.3766C786.468 60.1948 786.026 60.0909 785.532 60.0909C784.961 60.0909 784.545 60.2208 784.26 60.4545C783.974 60.6883 783.818 61.0779 783.818 61.5974C783.818 61.961 783.974 62.2987 784.286 62.5325C784.597 62.7922 784.961 63.026 785.429 63.2597C785.896 63.4935 786.39 63.7273 786.909 63.987C787.429 64.2468 787.922 64.5325 788.39 64.8961C788.857 65.2597 789.221 65.6753 789.532 66.1948C789.844 66.7143 790 67.3377 790 68.0649C790 69.1818 789.688 70.1429 789.091 70.9481C788.494 71.7532 787.558 72.2727 786.364 72.5584V75H784.104V72.6623C783.429 72.5844 782.701 72.4026 781.948 72.0909C781.195 71.7792 780.545 71.3896 780 70.8961L781.506 68.5844C782.104 69.026 782.675 69.3636 783.195 69.5974C783.74 69.8312 784.286 69.9351 784.831 69.9351C785.481 69.9351 785.974 69.8052 786.26 69.5455C786.571 69.2857 786.727 68.8701 786.727 68.3247C786.727 67.9091 786.571 67.5714 786.26 67.2857C785.948 67 785.584 66.7403 785.117 66.4805C784.649 66.2208 784.156 65.961 783.636 65.7013C783.117 65.4416 782.623 65.1299 782.156 64.7662C781.688 64.4026 781.325 63.987 781.013 63.4935C780.701 63 780.545 62.4286 780.545 61.7273C780.545 60.5844 780.857 59.6234 781.481 58.8701C782.104 58.1169 782.987 57.6234 784.078 57.4156V55H786.338V57.3636C787.091 57.4675 787.74 57.7013 788.312 58.039C788.883 58.3766 789.377 58.7922 789.844 59.2857L788.078 61.2597Z" fill="#333B41"/>
<path d="M794.209 63.834L795.212 54.5156H805.14V57.1816H797.776L797.269 61.5996C798.123 61.1087 799.088 60.8633 800.163 60.8633C801.924 60.8633 803.29 61.4261 804.264 62.5518C805.245 63.6774 805.736 65.1924 805.736 67.0967C805.736 68.9756 805.195 70.4736 804.111 71.5908C803.028 72.6995 801.543 73.2539 799.655 73.2539C797.963 73.2539 796.558 72.7757 795.44 71.8193C794.332 70.8545 793.731 69.585 793.638 68.0107H796.621C796.74 68.9079 797.061 69.5977 797.586 70.0801C798.111 70.554 798.796 70.791 799.643 70.791C800.59 70.791 801.327 70.4525 801.852 69.7754C802.385 69.0983 802.651 68.1758 802.651 67.0078C802.651 65.8822 802.359 64.9935 801.775 64.3418C801.191 63.6816 800.387 63.3516 799.363 63.3516C798.805 63.3516 798.331 63.4277 797.941 63.5801C797.552 63.724 797.129 64.0117 796.672 64.4434L794.209 63.834ZM820.209 65.2178C820.209 67.8753 819.71 69.8812 818.711 71.2354C817.721 72.5811 816.21 73.2539 814.179 73.2539C812.181 73.2539 810.675 72.598 809.659 71.2861C808.652 69.9658 808.136 68.015 808.11 65.4336V62.2344C808.11 59.5768 808.605 57.5837 809.596 56.2549C810.594 54.9261 812.114 54.2617 814.153 54.2617C816.176 54.2617 817.683 54.9092 818.673 56.2041C819.672 57.499 820.184 59.4372 820.209 62.0186V65.2178ZM817.124 61.7646C817.124 60.0296 816.887 58.7601 816.413 57.9561C815.939 57.1436 815.186 56.7373 814.153 56.7373C813.146 56.7373 812.406 57.1224 811.932 57.8926C811.458 58.6543 811.208 59.8477 811.183 61.4727V65.6621C811.183 67.3887 811.424 68.6751 811.906 69.5215C812.389 70.3678 813.146 70.791 814.179 70.791C815.169 70.791 815.901 70.4017 816.375 69.623C816.849 68.8359 817.099 67.6087 817.124 65.9414V61.7646Z" fill="#333B41"/>
<path d="M918.078 61.2597C917.662 60.8701 917.247 60.5844 916.857 60.3766C916.468 60.1948 916.026 60.0909 915.532 60.0909C914.961 60.0909 914.545 60.2208 914.26 60.4545C913.974 60.6883 913.818 61.0779 913.818 61.5974C913.818 61.961 913.974 62.2987 914.286 62.5325C914.597 62.7922 914.961 63.026 915.429 63.2597C915.896 63.4935 916.39 63.7273 916.909 63.987C917.429 64.2468 917.922 64.5325 918.39 64.8961C918.857 65.2597 919.221 65.6753 919.532 66.1948C919.844 66.7143 920 67.3377 920 68.0649C920 69.1818 919.688 70.1429 919.091 70.9481C918.494 71.7532 917.558 72.2727 916.364 72.5584V75H914.104V72.6623C913.429 72.5844 912.701 72.4026 911.948 72.0909C911.195 71.7792 910.545 71.3896 910 70.8961L911.506 68.5844C912.104 69.026 912.675 69.3636 913.195 69.5974C913.74 69.8312 914.286 69.9351 914.831 69.9351C915.481 69.9351 915.974 69.8052 916.26 69.5455C916.571 69.2857 916.727 68.8701 916.727 68.3247C916.727 67.9091 916.571 67.5714 916.26 67.2857C915.948 67 915.584 66.7403 915.117 66.4805C914.649 66.2208 914.156 65.961 913.636 65.7013C913.117 65.4416 912.623 65.1299 912.156 64.7662C911.688 64.4026 911.325 63.987 911.013 63.4935C910.701 63 910.545 62.4286 910.545 61.7273C910.545 60.5844 910.857 59.6234 911.481 58.8701C912.104 58.1169 912.987 57.6234 914.078 57.4156V55H916.338V57.3636C917.091 57.4675 917.74 57.7013 918.312 58.039C918.883 58.3766 919.377 58.7922 919.844 59.2857L918.078 61.2597Z" fill="#333B41"/>
<path d="M935.812 73H923.384V70.8799L929.541 64.1641C930.43 63.1738 931.06 62.3486 931.433 61.6885C931.813 61.0199 932.004 60.3512 932.004 59.6826C932.004 58.8024 931.754 58.0915 931.255 57.5498C930.764 57.0081 930.1 56.7373 929.262 56.7373C928.263 56.7373 927.489 57.042 926.938 57.6514C926.388 58.2607 926.113 59.0944 926.113 60.1523H923.028C923.028 59.0267 923.282 58.0153 923.79 57.1182C924.306 56.2126 925.038 55.5101 925.986 55.0107C926.943 54.5114 928.043 54.2617 929.287 54.2617C931.081 54.2617 932.495 54.7145 933.527 55.6201C934.568 56.5173 935.089 57.7614 935.089 59.3525C935.089 60.2751 934.826 61.2441 934.302 62.2598C933.785 63.2669 932.935 64.4137 931.75 65.7002L927.23 70.5371H935.812V73ZM938.986 63.834L939.989 54.5156H949.917V57.1816H942.554L942.046 61.5996C942.901 61.1087 943.866 60.8633 944.94 60.8633C946.701 60.8633 948.068 61.4261 949.041 62.5518C950.023 63.6774 950.514 65.1924 950.514 67.0967C950.514 68.9756 949.972 70.4736 948.889 71.5908C947.805 72.6995 946.32 73.2539 944.433 73.2539C942.74 73.2539 941.335 72.7757 940.218 71.8193C939.109 70.8545 938.508 69.585 938.415 68.0107H941.398C941.517 68.9079 941.839 69.5977 942.363 70.0801C942.888 70.554 943.574 70.791 944.42 70.791C945.368 70.791 946.104 70.4525 946.629 69.7754C947.162 69.0983 947.429 68.1758 947.429 67.0078C947.429 65.8822 947.137 64.9935 946.553 64.3418C945.969 63.6816 945.165 63.3516 944.141 63.3516C943.582 63.3516 943.108 63.4277 942.719 63.5801C942.329 63.724 941.906 64.0117 941.449 64.4434L938.986 63.834Z" fill="#333B41"/>
<path d="M138.078 61.2597C137.662 60.8701 137.247 60.5844 136.857 60.3766C136.468 60.1948 136.026 60.0909 135.532 60.0909C134.961 60.0909 134.545 60.2208 134.26 60.4545C133.974 60.6883 133.818 61.0779 133.818 61.5974C133.818 61.961 133.974 62.2987 134.286 62.5325C134.597 62.7922 134.961 63.026 135.429 63.2597C135.896 63.4935 136.39 63.7273 136.909 63.987C137.429 64.2468 137.922 64.5325 138.39 64.8961C138.857 65.2597 139.221 65.6753 139.532 66.1948C139.844 66.7143 140 67.3377 140 68.0649C140 69.1818 139.688 70.1429 139.091 70.9481C138.494 71.7532 137.558 72.2727 136.364 72.5584V75H134.104V72.6623C133.429 72.5844 132.701 72.4026 131.948 72.0909C131.195 71.7792 130.545 71.3896 130 70.8961L131.506 68.5844C132.104 69.026 132.675 69.3636 133.195 69.5974C133.74 69.8312 134.286 69.9351 134.831 69.9351C135.481 69.9351 135.974 69.8052 136.26 69.5455C136.571 69.2857 136.727 68.8701 136.727 68.3247C136.727 67.9091 136.571 67.5714 136.26 67.2857C135.948 67 135.584 66.7403 135.117 66.4805C134.649 66.2208 134.156 65.961 133.636 65.7013C133.117 65.4416 132.623 65.1299 132.156 64.7662C131.688 64.4026 131.325 63.987 131.013 63.4935C130.701 63 130.545 62.4286 130.545 61.7273C130.545 60.5844 130.857 59.6234 131.481 58.8701C132.104 58.1169 132.987 57.6234 134.078 57.4156V55H136.338V57.3636C137.091 57.4675 137.74 57.7013 138.312 58.039C138.883 58.3766 139.377 58.7922 139.844 59.2857L138.078 61.2597Z" fill="#333B41"/>
<path d="M155.812 73H143.384V70.8799L149.541 64.1641C150.43 63.1738 151.06 62.3486 151.433 61.6885C151.813 61.0199 152.004 60.3512 152.004 59.6826C152.004 58.8024 151.754 58.0915 151.255 57.5498C150.764 57.0081 150.1 56.7373 149.262 56.7373C148.263 56.7373 147.489 57.042 146.938 57.6514C146.388 58.2607 146.113 59.0944 146.113 60.1523H143.028C143.028 59.0267 143.282 58.0153 143.79 57.1182C144.306 56.2126 145.038 55.5101 145.986 55.0107C146.943 54.5114 148.043 54.2617 149.287 54.2617C151.081 54.2617 152.495 54.7145 153.527 55.6201C154.568 56.5173 155.089 57.7614 155.089 59.3525C155.089 60.2751 154.826 61.2441 154.302 62.2598C153.785 63.2669 152.935 64.4137 151.75 65.7002L147.23 70.5371H155.812V73ZM170.209 65.2178C170.209 67.8753 169.71 69.8812 168.711 71.2354C167.721 72.5811 166.21 73.2539 164.179 73.2539C162.181 73.2539 160.675 72.598 159.659 71.2861C158.652 69.9658 158.136 68.015 158.11 65.4336V62.2344C158.11 59.5768 158.605 57.5837 159.596 56.2549C160.594 54.9261 162.114 54.2617 164.153 54.2617C166.176 54.2617 167.683 54.9092 168.673 56.2041C169.672 57.499 170.184 59.4372 170.209 62.0186V65.2178ZM167.124 61.7646C167.124 60.0296 166.887 58.7601 166.413 57.9561C165.939 57.1436 165.186 56.7373 164.153 56.7373C163.146 56.7373 162.406 57.1224 161.932 57.8926C161.458 58.6543 161.208 59.8477 161.183 61.4727V65.6621C161.183 67.3887 161.424 68.6751 161.906 69.5215C162.389 70.3678 163.146 70.791 164.179 70.791C165.169 70.791 165.901 70.4017 166.375 69.623C166.849 68.8359 167.099 67.6087 167.124 65.9414V61.7646ZM184.986 65.2178C184.986 67.8753 184.487 69.8812 183.488 71.2354C182.498 72.5811 180.987 73.2539 178.956 73.2539C176.959 73.2539 175.452 72.598 174.437 71.2861C173.429 69.9658 172.913 68.015 172.888 65.4336V62.2344C172.888 59.5768 173.383 57.5837 174.373 56.2549C175.372 54.9261 176.891 54.2617 178.931 54.2617C180.953 54.2617 182.46 54.9092 183.45 56.2041C184.449 57.499 184.961 59.4372 184.986 62.0186V65.2178ZM181.901 61.7646C181.901 60.0296 181.664 58.7601 181.19 57.9561C180.716 57.1436 179.963 56.7373 178.931 56.7373C177.924 56.7373 177.183 57.1224 176.709 57.8926C176.235 58.6543 175.985 59.8477 175.96 61.4727V65.6621C175.96 67.3887 176.201 68.6751 176.684 69.5215C177.166 70.3678 177.924 70.791 178.956 70.791C179.946 70.791 180.678 70.4017 181.152 69.623C181.626 68.8359 181.876 67.6087 181.901 65.9414V61.7646ZM199.764 65.2178C199.764 67.8753 199.264 69.8812 198.266 71.2354C197.275 72.5811 195.765 73.2539 193.733 73.2539C191.736 73.2539 190.229 72.598 189.214 71.2861C188.207 69.9658 187.69 68.015 187.665 65.4336V62.2344C187.665 59.5768 188.16 57.5837 189.15 56.2549C190.149 54.9261 191.668 54.2617 193.708 54.2617C195.731 54.2617 197.237 54.9092 198.228 56.2041C199.226 57.499 199.738 59.4372 199.764 62.0186V65.2178ZM196.679 61.7646C196.679 60.0296 196.442 58.7601 195.968 57.9561C195.494 57.1436 194.741 56.7373 193.708 56.7373C192.701 56.7373 191.96 57.1224 191.486 57.8926C191.012 58.6543 190.763 59.8477 190.737 61.4727V65.6621C190.737 67.3887 190.979 68.6751 191.461 69.5215C191.943 70.3678 192.701 70.791 193.733 70.791C194.724 70.791 195.456 70.4017 195.93 69.623C196.404 68.8359 196.653 67.6087 196.679 65.9414V61.7646Z" fill="#333B41"/>
<path d="M8.07792 61.2597C7.66234 60.8701 7.24675 60.5844 6.85714 60.3766C6.46753 60.1948 6.02597 60.0909 5.53247 60.0909C4.96104 60.0909 4.54545 60.2208 4.25974 60.4545C3.97403 60.6883 3.81818 61.0779 3.81818 61.5974C3.81818 61.961 3.97403 62.2987 4.28571 62.5325C4.5974 62.7922 4.96104 63.026 5.42857 63.2597C5.8961 63.4935 6.38961 63.7273 6.90909 63.987C7.42857 64.2468 7.92208 64.5325 8.38961 64.8961C8.85714 65.2597 9.22078 65.6753 9.53247 66.1948C9.84416 66.7143 10 67.3377 10 68.0649C10 69.1818 9.68831 70.1429 9.09091 70.9481C8.49351 71.7532 7.55844 72.2727 6.36364 72.5584V75H4.1039V72.6623C3.42857 72.5844 2.7013 72.4026 1.94805 72.0909C1.19481 71.7792 0.545455 71.3896 0 70.8961L1.50649 68.5844C2.1039 69.026 2.67533 69.3636 3.19481 69.5974C3.74026 69.8312 4.28571 69.9351 4.83117 69.9351C5.48052 69.9351 5.97403 69.8052 6.25974 69.5455C6.57143 69.2857 6.72727 68.8701 6.72727 68.3247C6.72727 67.9091 6.57143 67.5714 6.25974 67.2857C5.94805 67 5.58442 66.7403 5.11688 66.4805C4.64935 66.2208 4.15584 65.961 3.63636 65.7013C3.11688 65.4416 2.62338 65.1299 2.15584 64.7662C1.68831 64.4026 1.32468 63.987 1.01299 63.4935C0.701299 63 0.545455 62.4286 0.545455 61.7273C0.545455 60.5844 0.857143 59.6234 1.48052 58.8701C2.1039 58.1169 2.98701 57.6234 4.07792 57.4156V55H6.33766V57.3636C7.09091 57.4675 7.74026 57.7013 8.31169 58.039C8.88312 58.3766 9.37662 58.7922 9.84416 59.2857L8.07792 61.2597Z" fill="#333B41"/>
<path d="M14.209 63.834L15.2119 54.5156H25.1396V57.1816H17.7764L17.2686 61.5996C18.1234 61.1087 19.0882 60.8633 20.1631 60.8633C21.9235 60.8633 23.2904 61.4261 24.2637 62.5518C25.2454 63.6774 25.7363 65.1924 25.7363 67.0967C25.7363 68.9756 25.1947 70.4736 24.1113 71.5908C23.028 72.6995 21.5426 73.2539 19.6553 73.2539C17.9626 73.2539 16.5576 72.7757 15.4404 71.8193C14.3317 70.8545 13.7308 69.585 13.6377 68.0107H16.6211C16.7396 68.9079 17.0612 69.5977 17.5859 70.0801C18.1107 70.554 18.7962 70.791 19.6426 70.791C20.5905 70.791 21.3268 70.4525 21.8516 69.7754C22.3848 69.0983 22.6514 68.1758 22.6514 67.0078C22.6514 65.8822 22.3594 64.9935 21.7754 64.3418C21.1914 63.6816 20.3874 63.3516 19.3633 63.3516C18.8047 63.3516 18.3307 63.4277 17.9414 63.5801C17.5521 63.724 17.1289 64.0117 16.6719 64.4434L14.209 63.834ZM40.209 65.2178C40.209 67.8753 39.7096 69.8812 38.7109 71.2354C37.7207 72.5811 36.21 73.2539 34.1787 73.2539C32.1813 73.2539 30.6748 72.598 29.6592 71.2861C28.652 69.9658 28.1357 68.015 28.1104 65.4336V62.2344C28.1104 59.5768 28.6055 57.5837 29.5957 56.2549C30.5944 54.9261 32.1136 54.2617 34.1533 54.2617C36.1761 54.2617 37.6826 54.9092 38.6729 56.2041C39.6715 57.499 40.1836 59.4372 40.209 62.0186V65.2178ZM37.124 61.7646C37.124 60.0296 36.887 58.7601 36.4131 57.9561C35.9391 57.1436 35.1859 56.7373 34.1533 56.7373C33.1462 56.7373 32.4056 57.1224 31.9316 57.8926C31.4577 58.6543 31.208 59.8477 31.1826 61.4727V65.6621C31.1826 67.3887 31.4238 68.6751 31.9062 69.5215C32.3887 70.3678 33.1462 70.791 34.1787 70.791C35.1689 70.791 35.901 70.4017 36.375 69.623C36.849 68.8359 37.0986 67.6087 37.124 65.9414V61.7646ZM54.9863 65.2178C54.9863 67.8753 54.487 69.8812 53.4883 71.2354C52.498 72.5811 50.9873 73.2539 48.9561 73.2539C46.9587 73.2539 45.4521 72.598 44.4365 71.2861C43.4294 69.9658 42.9131 68.015 42.8877 65.4336V62.2344C42.8877 59.5768 43.3828 57.5837 44.373 56.2549C45.3717 54.9261 46.891 54.2617 48.9307 54.2617C50.9535 54.2617 52.46 54.9092 53.4502 56.2041C54.4489 57.499 54.9609 59.4372 54.9863 62.0186V65.2178ZM51.9014 61.7646C51.9014 60.0296 51.6644 58.7601 51.1904 57.9561C50.7165 57.1436 49.9632 56.7373 48.9307 56.7373C47.9235 56.7373 47.1829 57.1224 46.709 57.8926C46.235 58.6543 45.9854 59.8477 45.96 61.4727V65.6621C45.96 67.3887 46.2012 68.6751 46.6836 69.5215C47.166 70.3678 47.9235 70.791 48.9561 70.791C49.9463 70.791 50.6784 70.4017 51.1523 69.623C51.6263 68.8359 51.876 67.6087 51.9014 65.9414V61.7646ZM69.7637 65.2178C69.7637 67.8753 69.2643 69.8812 68.2656 71.2354C67.2754 72.5811 65.7646 73.2539 63.7334 73.2539C61.736 73.2539 60.2295 72.598 59.2139 71.2861C58.2067 69.9658 57.6904 68.015 57.665 65.4336V62.2344C57.665 59.5768 58.1602 57.5837 59.1504 56.2549C60.1491 54.9261 61.6683 54.2617 63.708 54.2617C65.7308 54.2617 67.2373 54.9092 68.2275 56.2041C69.2262 57.499 69.7383 59.4372 69.7637 62.0186V65.2178ZM66.6787 61.7646C66.6787 60.0296 66.4417 58.7601 65.9678 57.9561C65.4938 57.1436 64.7406 56.7373 63.708 56.7373C62.7008 56.7373 61.9603 57.1224 61.4863 57.8926C61.0124 58.6543 60.7627 59.8477 60.7373 61.4727V65.6621C60.7373 67.3887 60.9785 68.6751 61.4609 69.5215C61.9434 70.3678 62.7008 70.791 63.7334 70.791C64.7236 70.791 65.4557 70.4017 65.9297 69.623C66.4036 68.8359 66.6533 67.6087 66.6787 65.9414V61.7646Z" fill="#333B41"/>
</svg>
