<svg width="71" height="38" viewBox="0 0 71 38" fill="none" xmlns="http://www.w3.org/2000/svg">
<path d="M5.57796 9.24401H1.96632V7.78635H5.57796C6.27738 7.78635 6.84373 7.67494 7.277 7.45211C7.71028 7.22929 8.02595 6.91981 8.22402 6.52367C8.42827 6.12754 8.5304 5.67569 8.5304 5.16815C8.5304 4.70393 8.42827 4.26756 8.22402 3.85904C8.02595 3.45053 7.71028 3.12248 7.277 2.87489C6.84373 2.62112 6.27738 2.49423 5.57796 2.49423H2.38412V14.5454H0.592222V1.02729H5.57796C6.59924 1.02729 7.46269 1.2037 8.16831 1.55651C8.87392 1.90931 9.40933 2.39829 9.77451 3.02345C10.1397 3.64241 10.3223 4.35112 10.3223 5.14958C10.3223 6.01612 10.1397 6.75578 9.77451 7.36855C9.40933 7.98133 8.87392 8.44864 8.16831 8.7705C7.46269 9.08617 6.59924 9.24401 5.57796 9.24401ZM16.3665 14.7311C15.667 14.7311 15.0326 14.6135 14.4631 14.3783C13.8999 14.1369 13.414 13.7996 13.0055 13.3663C12.6032 12.933 12.2937 12.4193 12.077 11.8251C11.8604 11.2309 11.7521 10.581 11.7521 9.87535V9.4854C11.7521 8.66837 11.8728 7.94109 12.1142 7.30356C12.3556 6.65984 12.6836 6.11516 13.0983 5.6695C13.513 5.22385 13.9835 4.88652 14.5096 4.6575C15.0357 4.42849 15.5804 4.31398 16.1436 4.31398C16.8616 4.31398 17.4806 4.43777 18.0005 4.68536C18.5266 4.93294 18.9568 5.27956 19.291 5.72521C19.6253 6.16467 19.8729 6.6846 20.0338 7.28499C20.1947 7.8792 20.2752 8.52911 20.2752 9.23472V10.0053H12.7734V8.60338H18.5576V8.4734C18.5328 8.02775 18.44 7.59447 18.279 7.17358C18.1243 6.75269 17.8767 6.40607 17.5363 6.13373C17.1959 5.86138 16.7316 5.72521 16.1436 5.72521C15.7537 5.72521 15.3947 5.80877 15.0666 5.97589C14.7386 6.13682 14.457 6.37822 14.2218 6.70008C13.9865 7.02194 13.804 7.41498 13.674 7.8792C13.544 8.34342 13.479 8.87882 13.479 9.4854V9.87535C13.479 10.3519 13.544 10.8007 13.674 11.2216C13.8101 11.6363 14.0051 12.0015 14.2589 12.3171C14.5189 12.6328 14.8314 12.8804 15.1966 13.0599C15.568 13.2394 15.9889 13.3292 16.4593 13.3292C17.0659 13.3292 17.5796 13.2054 18.0005 12.9578C18.4214 12.7102 18.7897 12.379 19.1054 11.9643L20.1452 12.7907C19.9286 13.1187 19.6531 13.4313 19.3189 13.7284C18.9847 14.0255 18.573 14.2669 18.0841 14.4526C17.6013 14.6383 17.0287 14.7311 16.3665 14.7311ZM26.4865 4.49967V5.81806H21.0551V4.49967H26.4865ZM22.8934 2.05787H24.611V12.0572C24.611 12.3976 24.6636 12.6545 24.7689 12.8278C24.8741 13.0011 25.0102 13.1156 25.1774 13.1713C25.3445 13.227 25.524 13.2549 25.7159 13.2549C25.8582 13.2549 26.0068 13.2425 26.1615 13.2177C26.3224 13.1868 26.4431 13.162 26.5236 13.1435L26.5329 14.5454C26.3967 14.5887 26.2172 14.629 25.9944 14.6661C25.7778 14.7094 25.5147 14.7311 25.2052 14.7311C24.7843 14.7311 24.3975 14.6475 24.0447 14.4804C23.6919 14.3133 23.4102 14.0348 23.1998 13.6448C22.9955 13.2487 22.8934 12.7164 22.8934 12.0479V2.05787ZM35.9659 11.1287C35.9659 10.8131 35.9163 10.5345 35.8173 10.2931C35.7245 10.0456 35.5573 9.82274 35.316 9.62467C35.0807 9.4266 34.7527 9.23782 34.3318 9.05832C33.9171 8.87882 33.391 8.69623 32.7535 8.51054C32.085 8.31247 31.4815 8.09274 30.943 7.85134C30.4045 7.60376 29.9434 7.32213 29.5596 7.00646C29.1759 6.69079 28.8818 6.3287 28.6776 5.92018C28.4733 5.51167 28.3712 5.04435 28.3712 4.51824C28.3712 3.99212 28.4795 3.50623 28.6962 3.06058C28.9128 2.61493 29.2223 2.22808 29.6246 1.90003C30.0331 1.56579 30.519 1.30583 31.0823 1.12014C31.6455 0.934451 32.2738 0.841606 32.967 0.841606C33.9821 0.841606 34.8424 1.03658 35.5481 1.42652C36.2599 1.81028 36.8015 2.31473 37.1728 2.93989C37.5442 3.55885 37.7299 4.22114 37.7299 4.92675H35.9473C35.9473 4.4192 35.839 3.97046 35.6223 3.58051C35.4057 3.18437 35.0777 2.87489 34.6382 2.65207C34.1987 2.42305 33.6417 2.30854 32.967 2.30854C32.3295 2.30854 31.8033 2.40448 31.3886 2.59636C30.9739 2.78824 30.6645 3.0482 30.4602 3.37625C30.2621 3.7043 30.1631 4.07877 30.1631 4.49967C30.1631 4.78439 30.2219 5.04435 30.3395 5.27956C30.4633 5.50857 30.6521 5.72212 30.9059 5.92018C31.1658 6.11825 31.4939 6.30085 31.89 6.46796C32.2923 6.63508 32.772 6.79601 33.3291 6.95075C34.0966 7.16739 34.7589 7.40879 35.316 7.67494C35.873 7.94109 36.331 8.24129 36.69 8.57553C37.0552 8.90358 37.3245 9.27805 37.4978 9.69894C37.6773 10.1136 37.767 10.5841 37.767 11.1102C37.767 11.6611 37.6556 12.1593 37.4328 12.605C37.21 13.0506 36.8912 13.4313 36.4765 13.747C36.0618 14.0626 35.5635 14.3071 34.9817 14.4804C34.4061 14.6475 33.7624 14.7311 33.0506 14.7311C32.4254 14.7311 31.8095 14.6444 31.203 14.4711C30.6026 14.2978 30.0548 14.0379 29.5596 13.6912C29.0706 13.3446 28.6776 12.9175 28.3805 12.41C28.0896 11.8963 27.9441 11.3021 27.9441 10.6274H29.7267C29.7267 11.0916 29.8165 11.4908 29.996 11.8251C30.1755 12.1531 30.42 12.4255 30.7294 12.6421C31.0451 12.8587 31.401 13.0197 31.7972 13.1249C32.1995 13.2239 32.6173 13.2734 33.0506 13.2734C33.6757 13.2734 34.2049 13.1868 34.6382 13.0135C35.0715 12.8402 35.3995 12.5926 35.6223 12.2707C35.8514 11.9489 35.9659 11.5682 35.9659 11.1287ZM43.9969 4.49967V5.81806H38.5655V4.49967H43.9969ZM40.4038 2.05787H42.1214V12.0572C42.1214 12.3976 42.174 12.6545 42.2793 12.8278C42.3845 13.0011 42.5207 13.1156 42.6878 13.1713C42.8549 13.227 43.0344 13.2549 43.2263 13.2549C43.3686 13.2549 43.5172 13.2425 43.6719 13.2177C43.8329 13.1868 43.9536 13.162 44.034 13.1435L44.0433 14.5454C43.9071 14.5887 43.7276 14.629 43.5048 14.6661C43.2882 14.7094 43.0251 14.7311 42.7156 14.7311C42.2947 14.7311 41.9079 14.6475 41.5551 14.4804C41.2023 14.3133 40.9206 14.0348 40.7102 13.6448C40.5059 13.2487 40.4038 12.7164 40.4038 12.0479V2.05787ZM45.371 9.63395V9.42041C45.371 8.69623 45.4762 8.02465 45.6867 7.40569C45.8971 6.78054 46.2004 6.23895 46.5965 5.78092C46.9927 5.3167 47.4724 4.9577 48.0356 4.70393C48.5989 4.44396 49.2302 4.31398 49.9296 4.31398C50.6352 4.31398 51.2697 4.44396 51.8329 4.70393C52.4024 4.9577 52.8852 5.3167 53.2813 5.78092C53.6836 6.23895 53.99 6.78054 54.2005 7.40569C54.4109 8.02465 54.5161 8.69623 54.5161 9.42041V9.63395C54.5161 10.3581 54.4109 11.0297 54.2005 11.6487C53.99 12.2676 53.6836 12.8092 53.2813 13.2734C52.8852 13.7315 52.4055 14.0905 51.8422 14.3504C51.2852 14.6042 50.6538 14.7311 49.9482 14.7311C49.2426 14.7311 48.6081 14.6042 48.0449 14.3504C47.4816 14.0905 46.9989 13.7315 46.5965 13.2734C46.2004 12.8092 45.8971 12.2676 45.6867 11.6487C45.4762 11.0297 45.371 10.3581 45.371 9.63395ZM47.0886 9.42041V9.63395C47.0886 10.1353 47.1474 10.6088 47.265 11.0545C47.3826 11.4939 47.559 11.8839 47.7942 12.2243C48.0356 12.5647 48.3358 12.834 48.6948 13.032C49.0538 13.2239 49.4716 13.3199 49.9482 13.3199C50.4186 13.3199 50.8302 13.2239 51.183 13.032C51.542 12.834 51.8391 12.5647 52.0743 12.2243C52.3095 11.8839 52.4859 11.4939 52.6035 11.0545C52.7273 10.6088 52.7892 10.1353 52.7892 9.63395V9.42041C52.7892 8.92524 52.7273 8.45793 52.6035 8.01846C52.4859 7.57281 52.3064 7.17977 52.065 6.83934C51.8298 6.49272 51.5327 6.22038 51.1737 6.02231C50.8209 5.82425 50.4062 5.72521 49.9296 5.72521C49.4592 5.72521 49.0445 5.82425 48.6855 6.02231C48.3327 6.22038 48.0356 6.49272 47.7942 6.83934C47.559 7.17977 47.3826 7.57281 47.265 8.01846C47.1474 8.45793 47.0886 8.92524 47.0886 9.42041ZM58.3877 6.07802V14.5454H56.6701V4.49967H58.3413L58.3877 6.07802ZM61.5259 4.44396L61.5166 6.04088C61.3742 6.00993 61.2381 5.99136 61.1081 5.98517C60.9843 5.9728 60.8419 5.96661 60.681 5.96661C60.2849 5.96661 59.9351 6.0285 59.6318 6.15229C59.3286 6.27609 59.0717 6.4494 58.8612 6.67222C58.6508 6.89505 58.4837 7.1612 58.3599 7.47068C58.2423 7.77397 58.1649 8.10821 58.1278 8.4734L57.645 8.75193C57.645 8.14535 57.7038 7.57591 57.8214 7.0436C57.9452 6.51129 58.134 6.04088 58.3877 5.63237C58.6415 5.21766 58.9634 4.8958 59.3533 4.66679C59.7495 4.43158 60.2199 4.31398 60.7645 4.31398C60.8883 4.31398 61.0307 4.32945 61.1916 4.3604C61.3526 4.38516 61.464 4.41301 61.5259 4.44396ZM66.1031 13.5056L68.8977 4.49967H70.736L66.7066 16.0959C66.6137 16.3435 66.4899 16.6096 66.3352 16.8944C66.1866 17.1853 65.9948 17.4607 65.7596 17.7207C65.5244 17.9806 65.2396 18.1911 64.9054 18.352C64.5774 18.5191 64.1843 18.6027 63.7263 18.6027C63.5901 18.6027 63.4168 18.5841 63.2064 18.547C62.9959 18.5099 62.8474 18.4789 62.7607 18.4542L62.7514 17.0615C62.8009 17.0677 62.8783 17.0739 62.9835 17.0801C63.0949 17.0924 63.1723 17.0986 63.2156 17.0986C63.6056 17.0986 63.9367 17.046 64.2091 16.9408C64.4814 16.8418 64.7104 16.6715 64.8961 16.4301C65.088 16.1949 65.252 15.87 65.3882 15.4553L66.1031 13.5056ZM64.0512 4.49967L66.6602 12.2986L67.1058 14.109L65.871 14.7404L62.1758 4.49967H64.0512ZM10.2573 32.634V32.4204C10.2573 31.6962 10.3625 31.0247 10.573 30.4057C10.7834 29.7805 11.0867 29.2389 11.4828 28.7809C11.879 28.3167 12.3587 27.9577 12.9219 27.7039C13.4852 27.444 14.1165 27.314 14.816 27.314C15.5216 27.314 16.156 27.444 16.7193 27.7039C17.2887 27.9577 17.7715 28.3167 18.1676 28.7809C18.57 29.2389 18.8763 29.7805 19.0868 30.4057C19.2972 31.0247 19.4025 31.6962 19.4025 32.4204V32.634C19.4025 33.3581 19.2972 34.0297 19.0868 34.6487C18.8763 35.2676 18.57 35.8092 18.1676 36.2734C17.7715 36.7315 17.2918 37.0905 16.7285 37.3504C16.1715 37.6042 15.5401 37.7311 14.8345 37.7311C14.1289 37.7311 13.4945 37.6042 12.9312 37.3504C12.368 37.0905 11.8852 36.7315 11.4828 36.2734C11.0867 35.8092 10.7834 35.2676 10.573 34.6487C10.3625 34.0297 10.2573 33.3581 10.2573 32.634ZM11.9749 32.4204V32.634C11.9749 33.1353 12.0337 33.6088 12.1513 34.0545C12.2689 34.4939 12.4453 34.8839 12.6805 35.2243C12.9219 35.5647 13.2221 35.834 13.5811 36.032C13.9401 36.2239 14.3579 36.3199 14.8345 36.3199C15.3049 36.3199 15.7165 36.2239 16.0694 36.032C16.4283 35.834 16.7254 35.5647 16.9607 35.2243C17.1959 34.8839 17.3723 34.4939 17.4899 34.0545C17.6137 33.6088 17.6756 33.1353 17.6756 32.634V32.4204C17.6756 31.9252 17.6137 31.4579 17.4899 31.0185C17.3723 30.5728 17.1928 30.1798 16.9514 29.8393C16.7162 29.4927 16.4191 29.2204 16.0601 29.0223C15.7073 28.8242 15.2926 28.7252 14.816 28.7252C14.3455 28.7252 13.9308 28.8242 13.5718 29.0223C13.219 29.2204 12.9219 29.4927 12.6805 29.8393C12.4453 30.1798 12.2689 30.5728 12.1513 31.0185C12.0337 31.4579 11.9749 31.9252 11.9749 32.4204ZM23.2741 29.6444V37.5454H21.5564V27.4997H23.1812L23.2741 29.6444ZM22.8655 32.1419L22.1506 32.114C22.1568 31.427 22.259 30.7925 22.457 30.2107C22.6551 29.6227 22.9336 29.1121 23.2926 28.6788C23.6516 28.2455 24.0787 27.9113 24.5739 27.6761C25.0752 27.4347 25.6292 27.314 26.2358 27.314C26.731 27.314 27.1766 27.3821 27.5727 27.5182C27.9689 27.6482 28.3062 27.8587 28.5847 28.1496C28.8695 28.4405 29.0861 28.8181 29.2347 29.2823C29.3832 29.7403 29.4575 30.3005 29.4575 30.9628V37.5454H27.7306V30.9442C27.7306 30.4181 27.6532 29.9972 27.4985 29.6815C27.3437 29.3596 27.1178 29.1275 26.8207 28.9852C26.5236 28.8366 26.1584 28.7623 25.7251 28.7623C25.2981 28.7623 24.9081 28.8521 24.5553 29.0316C24.2087 29.2111 23.9085 29.4587 23.6547 29.7744C23.4071 30.09 23.2122 30.4521 23.0698 30.8606C22.9336 31.263 22.8655 31.69 22.8655 32.1419ZM33.9326 23.2845V37.5454H32.2057V23.2845H33.9326ZM38.5562 27.4997V37.5454H36.8293V27.4997H38.5562ZM36.6993 24.835C36.6993 24.5565 36.7829 24.3213 36.95 24.1294C37.1233 23.9375 37.3771 23.8416 37.7113 23.8416C38.0394 23.8416 38.2901 23.9375 38.4634 24.1294C38.6429 24.3213 38.7326 24.5565 38.7326 24.835C38.7326 25.1012 38.6429 25.3302 38.4634 25.5221C38.2901 25.7078 38.0394 25.8006 37.7113 25.8006C37.3771 25.8006 37.1233 25.7078 36.95 25.5221C36.7829 25.3302 36.6993 25.1012 36.6993 24.835ZM43.0313 29.6444V37.5454H41.3137V27.4997H42.9385L43.0313 29.6444ZM42.6228 32.1419L41.9079 32.114C41.9141 31.427 42.0162 30.7925 42.2143 30.2107C42.4123 29.6227 42.6909 29.1121 43.0499 28.6788C43.4089 28.2455 43.836 27.9113 44.3311 27.6761C44.8325 27.4347 45.3865 27.314 45.993 27.314C46.4882 27.314 46.9339 27.3821 47.33 27.5182C47.7261 27.6482 48.0635 27.8587 48.342 28.1496C48.6267 28.4405 48.8434 28.8181 48.9919 29.2823C49.1405 29.7403 49.2147 30.3005 49.2147 30.9628V37.5454H47.4878V30.9442C47.4878 30.4181 47.4105 29.9972 47.2557 29.6815C47.101 29.3596 46.8751 29.1275 46.578 28.9852C46.2809 28.8366 45.9157 28.7623 45.4824 28.7623C45.0553 28.7623 44.6654 28.8521 44.3126 29.0316C43.9659 29.2111 43.6657 29.4587 43.412 29.7744C43.1644 30.09 42.9694 30.4521 42.827 30.8606C42.6909 31.263 42.6228 31.69 42.6228 32.1419ZM55.9924 37.7311C55.2929 37.7311 54.6585 37.6135 54.0891 37.3783C53.5258 37.1369 53.0399 36.7996 52.6314 36.3663C52.2291 35.933 51.9196 35.4193 51.703 34.8251C51.4863 34.2309 51.378 33.581 51.378 32.8753V32.4854C51.378 31.6684 51.4987 30.9411 51.7401 30.3036C51.9815 29.6598 52.3095 29.1152 52.7242 28.6695C53.1389 28.2239 53.6094 27.8865 54.1355 27.6575C54.6616 27.4285 55.2063 27.314 55.7695 27.314C56.4875 27.314 57.1065 27.4378 57.6264 27.6854C58.1525 27.9329 58.5827 28.2796 58.9169 28.7252C59.2512 29.1647 59.4988 29.6846 59.6597 30.285C59.8206 30.8792 59.9011 31.5291 59.9011 32.2347V33.0053H52.3993V31.6034H58.1835V31.4734C58.1587 31.0277 58.0659 30.5945 57.9049 30.1736C57.7502 29.7527 57.5026 29.4061 57.1622 29.1337C56.8218 28.8614 56.3575 28.7252 55.7695 28.7252C55.3796 28.7252 55.0206 28.8088 54.6925 28.9759C54.3645 29.1368 54.0829 29.3782 53.8477 29.7001C53.6125 30.0219 53.4299 30.415 53.2999 30.8792C53.1699 31.3434 53.1049 31.8788 53.1049 32.4854V32.8753C53.1049 33.3519 53.1699 33.8007 53.2999 34.2216C53.436 34.6363 53.631 35.0015 53.8848 35.3171C54.1448 35.6328 54.4573 35.8804 54.8225 36.0599C55.1939 36.2394 55.6148 36.3292 56.0852 36.3292C56.6918 36.3292 57.2055 36.2054 57.6264 35.9578C58.0473 35.7102 58.4156 35.379 58.7313 34.9643L59.7711 35.7907C59.5545 36.1187 59.279 36.4313 58.9448 36.7284C58.6106 37.0255 58.199 37.2669 57.71 37.4526C57.2272 37.6383 56.6546 37.7311 55.9924 37.7311Z" fill="white"/>
<path d="M1.96632 9.24401H0.777911V10.4324H1.96632V9.24401ZM1.96632 7.78635V6.59795H0.777911V7.78635H1.96632ZM8.22402 6.52367L7.16776 5.97904L7.16437 5.9856L7.16107 5.9922L8.22402 6.52367ZM8.22402 3.85904L7.15467 4.37751L7.15783 4.38403L7.16107 4.39051L8.22402 3.85904ZM7.277 2.87489L6.67635 3.90041L6.68739 3.90672L7.277 2.87489ZM2.38412 2.49423V1.30583H1.19571V2.49423H2.38412ZM2.38412 14.5454V15.7338H3.57252V14.5454H2.38412ZM0.592222 14.5454H-0.596184V15.7338H0.592222V14.5454ZM0.592222 1.02729V-0.161111H-0.596184V1.02729H0.592222ZM9.77451 3.02345L8.74835 3.62289L8.75098 3.62733L9.77451 3.02345ZM8.16831 8.7705L8.65363 9.85533L8.6615 9.85174L8.16831 8.7705ZM5.57796 8.0556H1.96632V10.4324H5.57796V8.0556ZM3.15472 9.24401V7.78635H0.777911V9.24401H3.15472ZM1.96632 8.97476H5.57796V6.59795H1.96632V8.97476ZM5.57796 8.97476C6.38963 8.97476 7.16202 8.84761 7.82052 8.50895L6.73349 6.39528C6.52544 6.50227 6.16514 6.59795 5.57796 6.59795V8.97476ZM7.82052 8.50895C8.4547 8.1828 8.96462 7.69982 9.28696 7.05514L7.16107 5.9922C7.08727 6.1398 6.96585 6.27578 6.73349 6.39528L7.82052 8.50895ZM9.28027 7.0683C9.58275 6.48168 9.71881 5.83868 9.71881 5.16815H7.342C7.342 5.51271 7.27379 5.77339 7.16776 5.97904L9.28027 7.0683ZM9.71881 5.16815C9.71881 4.52257 9.57512 3.90389 9.28696 3.32757L7.16107 4.39051C7.28143 4.63123 7.342 4.88528 7.342 5.16815H9.71881ZM9.29336 3.34057C8.98045 2.6952 8.48634 2.1972 7.86662 1.84307L6.68739 3.90672C6.93422 4.04776 7.07145 4.20586 7.15467 4.37751L9.29336 3.34057ZM7.87763 1.84944C7.2043 1.45506 6.40944 1.30583 5.57796 1.30583V3.68264C6.14532 3.68264 6.48316 3.78718 6.67638 3.90035L7.87763 1.84944ZM5.57796 1.30583H2.38412V3.68264H5.57796V1.30583ZM1.19571 2.49423V14.5454H3.57252V2.49423H1.19571ZM2.38412 13.357H0.592222V15.7338H2.38412V13.357ZM1.78063 14.5454V1.02729H-0.596184V14.5454H1.78063ZM0.592222 2.2157H5.57796V-0.161111H0.592222V2.2157ZM5.57796 2.2157C6.46723 2.2157 7.13752 2.36979 7.63684 2.61945L8.69978 0.493564C7.78787 0.037608 6.73125 -0.161111 5.57796 -0.161111V2.2157ZM7.63684 2.61945C8.15534 2.8787 8.50999 3.21481 8.74836 3.62288L10.8007 2.42401C10.3087 1.58178 9.59251 0.939931 8.69978 0.493564L7.63684 2.61945ZM8.75098 3.62733C8.99656 4.04357 9.13389 4.53932 9.13389 5.14958H11.5107C11.5107 4.16291 11.2828 3.24124 10.7981 2.41956L8.75098 3.62733ZM9.13389 5.14958C9.13389 5.84793 8.98781 6.36724 8.75365 6.76016L10.7954 7.97695C11.2916 7.14432 11.5107 6.18431 11.5107 5.14958H9.13389ZM8.75365 6.76016C8.52304 7.14711 8.18097 7.45852 7.67511 7.68927L8.6615 9.85174C9.56688 9.43876 10.2956 8.81554 10.7954 7.97695L8.75365 6.76016ZM7.683 7.6857C7.17071 7.91489 6.48314 8.0556 5.57796 8.0556V10.4324C6.71535 10.4324 7.75467 10.2575 8.65361 9.8553L7.683 7.6857ZM14.4631 14.3783L13.995 15.4706L14.0022 15.4737L14.0095 15.4767L14.4631 14.3783ZM13.0055 13.3663L12.1346 14.175L12.1408 14.1816L13.0055 13.3663ZM12.077 11.8251L10.9605 12.2321L12.077 11.8251ZM12.1142 7.30356L13.2256 7.72439L13.2269 7.72084L12.1142 7.30356ZM13.0983 5.6695L12.2283 4.85993L13.0983 5.6695ZM18.0005 4.68536L17.4896 5.75833L17.4945 5.76065L18.0005 4.68536ZM19.291 5.72521L18.3403 6.43827L18.3451 6.44463L19.291 5.72521ZM20.0338 7.28499L18.8859 7.59268L18.8867 7.59566L20.0338 7.28499ZM20.2752 10.0053V11.1937H21.4636V10.0053H20.2752ZM12.7734 10.0053H11.585V11.1937H12.7734V10.0053ZM12.7734 8.60338V7.41498H11.585V8.60338H12.7734ZM18.5576 8.60338V9.79179H19.746V8.60338H18.5576ZM18.5576 8.4734H19.746V8.44041L19.7442 8.40748L18.5576 8.4734ZM18.279 7.17358L17.1636 7.58366L17.1663 7.59085L17.169 7.598L18.279 7.17358ZM15.0666 5.97589L15.59 7.04283L15.5981 7.03888L15.6061 7.03481L15.0666 5.97589ZM13.674 11.2216L12.5385 11.5723L12.5416 11.5823L12.5449 11.5923L13.674 11.2216ZM14.2589 12.3171L13.3326 13.0618L13.3415 13.0726L14.2589 12.3171ZM15.1966 13.0599L14.6724 14.1265L14.6795 14.1299L15.1966 13.0599ZM19.1054 11.9643L19.8447 11.0339L18.8947 10.279L18.1597 11.2445L19.1054 11.9643ZM20.1452 12.7907L21.1369 13.4455L21.7366 12.5373L20.8846 11.8602L20.1452 12.7907ZM18.0841 14.4526L17.6622 13.3416L17.6575 13.3434L18.0841 14.4526ZM16.3665 13.5427C15.8018 13.5427 15.3242 13.4482 14.9168 13.2799L14.0095 15.4767C14.7409 15.7788 15.5323 15.9195 16.3665 15.9195V13.5427ZM14.9313 13.286C14.5133 13.1069 14.1636 12.8623 13.8702 12.551L12.1408 14.1816C12.6644 14.7369 13.2864 15.1669 13.995 15.4706L14.9313 13.286ZM13.8763 12.5576C13.5892 12.2484 13.3597 11.8738 13.1936 11.418L10.9605 12.2321C11.2276 12.9647 11.6171 13.6176 12.1346 14.1749L13.8763 12.5576ZM13.1936 11.418C13.0297 10.9685 12.9405 10.4581 12.9405 9.87535H10.5637C10.5637 10.7038 10.6912 11.4933 10.9605 12.2321L13.1936 11.418ZM12.9405 9.87535V9.4854H10.5637V9.87535H12.9405ZM12.9405 9.4854C12.9405 8.78434 13.0441 8.20369 13.2256 7.72439L11.0028 6.88274C10.7015 7.6785 10.5637 8.55241 10.5637 9.4854H12.9405ZM13.2269 7.72084C13.4208 7.20376 13.6722 6.7973 13.9683 6.47908L12.2283 4.85993C11.6951 5.43301 11.2903 6.11593 11.0014 6.88629L13.2269 7.72084ZM13.9683 6.47908C14.2787 6.14558 14.6165 5.90707 14.9839 5.74715L14.0353 3.56786C13.3504 3.86597 12.7474 4.30213 12.2283 4.85993L13.9683 6.47908ZM14.9839 5.74715C15.3632 5.58202 15.7467 5.50239 16.1436 5.50239V3.12557C15.4141 3.12557 14.7081 3.27495 14.0353 3.56786L14.9839 5.74715ZM16.1436 5.50239C16.7274 5.50239 17.1636 5.60312 17.4896 5.75832L18.5114 3.61239C17.7975 3.27243 16.9959 3.12557 16.1436 3.12557V5.50239ZM17.4945 5.76065C17.853 5.92935 18.1277 6.15474 18.3403 6.43825L20.2418 5.01217C19.7859 4.40438 19.2003 3.93653 18.5065 3.61006L17.4945 5.76065ZM18.3451 6.44463C18.5749 6.74675 18.7599 7.12265 18.8859 7.59267L21.1817 6.97731C20.9858 6.24655 20.6757 5.5826 20.237 5.00579L18.3451 6.44463ZM18.8867 7.59566C19.0166 8.07508 19.0868 8.61905 19.0868 9.23472H21.4636C21.4636 8.43916 21.3729 7.68331 21.1809 6.97433L18.8867 7.59566ZM19.0868 9.23472V10.0053H21.4636V9.23472H19.0868ZM20.2752 8.81692H12.7734V11.1937H20.2752V8.81692ZM13.9618 10.0053V8.60338H11.585V10.0053H13.9618ZM12.7734 9.79179H18.5576V7.41498H12.7734V9.79179ZM19.746 8.60338V8.4734H17.3692V8.60338H19.746ZM19.7442 8.40748C19.7125 7.8379 19.5935 7.28376 19.3891 6.74916L17.169 7.598C17.2865 7.90519 17.3531 8.2176 17.371 8.53932L19.7442 8.40748ZM19.3945 6.7635C19.1672 6.1453 18.7934 5.61748 18.2787 5.20574L16.7939 7.06171C16.9601 7.19465 17.0814 7.36007 17.1636 7.58366L19.3945 6.7635ZM18.2787 5.20574C17.6644 4.7143 16.9077 4.53681 16.1436 4.53681V6.91362C16.5556 6.91362 16.7273 7.00846 16.7939 7.06171L18.2787 5.20574ZM16.1436 4.53681C15.5776 4.53681 15.0322 4.65971 14.5272 4.91697L15.6061 7.03481C15.7572 6.95783 15.9298 6.91362 16.1436 6.91362V4.53681ZM14.5432 4.90895C14.0269 5.16222 13.6005 5.53604 13.2622 5.9989L15.1813 7.40125C15.3134 7.22039 15.4502 7.11142 15.59 7.04283L14.5432 4.90895ZM13.2622 5.9989C12.9276 6.45682 12.6901 6.98543 12.5296 7.55877L14.8184 8.19963C14.9178 7.84452 15.0455 7.58705 15.1813 7.40125L13.2622 5.9989ZM12.5296 7.55877C12.364 8.1501 12.2906 8.79706 12.2906 9.4854H14.6674C14.6674 8.96058 14.724 8.53673 14.8184 8.19963L12.5296 7.55877ZM12.2906 9.4854V9.87535H14.6674V9.4854H12.2906ZM12.2906 9.87535C12.2906 10.4611 12.3707 11.0289 12.5385 11.5723L14.8095 10.8709C14.7173 10.5725 14.6674 10.2428 14.6674 9.87535H12.2906ZM12.5449 11.5923C12.7222 12.1322 12.9826 12.6263 13.3327 13.0618L15.1851 11.5725C15.0276 11.3767 14.8981 11.1403 14.8031 10.8508L12.5449 11.5923ZM13.3415 13.0726C13.7084 13.5181 14.1548 13.872 14.6724 14.1264L15.7208 11.9934C15.5081 11.8888 15.3293 11.7476 15.1763 11.5617L13.3415 13.0726ZM14.6795 14.1299C15.2334 14.3976 15.835 14.5176 16.4593 14.5176V12.1407C16.1428 12.1407 15.9026 12.0812 15.7138 11.9899L14.6795 14.1299ZM16.4593 14.5176C17.2269 14.5176 17.9602 14.3603 18.6031 13.9821L17.398 11.9334C17.1991 12.0504 16.9049 12.1407 16.4593 12.1407V14.5176ZM18.6031 13.9821C19.1658 13.6511 19.6482 13.2133 20.051 12.6841L18.1597 11.2445C17.9312 11.5448 17.677 11.7693 17.398 11.9334L18.6031 13.9821ZM18.366 12.8948L19.4059 13.7211L20.8846 11.8602L19.8447 11.0339L18.366 12.8948ZM19.1535 12.1358C19.001 12.3667 18.7968 12.6025 18.5294 12.8402L20.1084 14.6166C20.5095 14.2601 20.8561 13.8707 21.1369 13.4455L19.1535 12.1358ZM18.5294 12.8402C18.3197 13.0265 18.0386 13.1986 17.6622 13.3416L18.506 15.5636C19.1075 15.3351 19.6496 15.0245 20.1084 14.6166L18.5294 12.8402ZM17.6575 13.3434C17.343 13.4643 16.9219 13.5427 16.3665 13.5427V15.9195C17.1356 15.9195 17.8595 15.8122 18.5107 15.5618L17.6575 13.3434ZM26.4865 4.49967H27.6749V3.31126H26.4865V4.49967ZM26.4865 5.81806V7.00646H27.6749V5.81806H26.4865ZM21.0551 5.81806H19.8667V7.00646H21.0551V5.81806ZM21.0551 4.49967V3.31126H19.8667V4.49967H21.0551ZM22.8934 2.05787V0.86946H21.705V2.05787H22.8934ZM24.611 2.05787H25.7994V0.86946H24.611V2.05787ZM26.1615 13.2177L26.3493 14.3912L26.3677 14.3883L26.3859 14.3848L26.1615 13.2177ZM26.5236 13.1435L27.712 13.1356L27.7022 11.6518L26.2564 11.9855L26.5236 13.1435ZM26.5329 14.5454L26.8932 15.6779L27.7271 15.4126L27.7213 14.5375L26.5329 14.5454ZM25.9944 14.6661L25.799 13.4939L25.7801 13.497L25.7613 13.5008L25.9944 14.6661ZM23.1998 13.6448L22.1435 14.1895L22.1486 14.1994L22.154 14.2092L23.1998 13.6448ZM25.2981 4.49967V5.81806H27.6749V4.49967H25.2981ZM26.4865 4.62965H21.0551V7.00646H26.4865V4.62965ZM22.2435 5.81806V4.49967H19.8667V5.81806H22.2435ZM21.0551 5.68807H26.4865V3.31126H21.0551V5.68807ZM22.8934 3.24627H24.611V0.86946H22.8934V3.24627ZM23.4226 2.05787V12.0572H25.7994V2.05787H23.4226ZM23.4226 12.0572C23.4226 12.484 23.4822 12.9984 23.753 13.4445L25.7847 12.211C25.8202 12.2696 25.8213 12.2986 25.8147 12.2667C25.8084 12.2359 25.7994 12.1696 25.7994 12.0572H23.4226ZM23.753 13.4445C23.981 13.8201 24.3276 14.1407 24.8016 14.2987L25.5532 12.0439C25.6133 12.0639 25.6692 12.0958 25.7148 12.1341C25.7585 12.1709 25.7794 12.2023 25.7847 12.211L23.753 13.4445ZM24.8016 14.2987C25.1002 14.3983 25.4076 14.4433 25.7159 14.4433V12.0665C25.6404 12.0665 25.5888 12.0558 25.5532 12.0439L24.8016 14.2987ZM25.7159 14.4433C25.927 14.4433 26.1386 14.4249 26.3493 14.3912L25.9738 12.0443C25.875 12.0601 25.7894 12.0665 25.7159 12.0665V14.4433ZM26.3859 14.3848C26.5502 14.3532 26.6883 14.3251 26.7908 14.3014L26.2564 11.9855C26.198 11.999 26.0947 12.0204 25.9371 12.0507L26.3859 14.3848ZM25.3352 13.1513L25.3445 14.5533L27.7213 14.5375L27.712 13.1356L25.3352 13.1513ZM26.1726 13.4129C26.112 13.4322 25.9941 13.4614 25.799 13.4939L26.1898 15.8383C26.4404 15.7966 26.6814 15.7453 26.8932 15.6779L26.1726 13.4129ZM25.7613 13.5008C25.6451 13.524 25.465 13.5427 25.2052 13.5427V15.9195C25.5644 15.9195 25.9104 15.8948 26.2275 15.8314L25.7613 13.5008ZM25.2052 13.5427C24.9463 13.5427 24.735 13.4924 24.5534 13.4064L23.5359 15.5544C24.0599 15.8026 24.6224 15.9195 25.2052 15.9195V13.5427ZM24.5534 13.4064C24.4596 13.362 24.3528 13.279 24.2456 13.0804L22.154 14.2092C22.4677 14.7905 22.9241 15.2646 23.5359 15.5544L24.5534 13.4064ZM24.256 13.1002C24.1712 12.9357 24.0818 12.6138 24.0818 12.0479H21.705C21.705 12.819 21.8198 13.5617 22.1435 14.1895L24.256 13.1002ZM24.0818 12.0479V2.05787H21.705V12.0479H24.0818ZM35.8173 10.2931L34.7046 10.7104L34.7109 10.7274L34.7178 10.7442L35.8173 10.2931ZM35.316 9.62467L34.5505 10.5337L34.5563 10.5386L34.5621 10.5434L35.316 9.62467ZM34.3318 9.05832L33.8597 10.149L33.8656 10.1515L34.3318 9.05832ZM32.7535 8.51054L32.4158 9.64999L32.4211 9.65153L32.7535 8.51054ZM30.943 7.85134L30.4465 8.93114L30.4569 8.93577L30.943 7.85134ZM29.6246 1.90003L30.3756 2.82107L30.3771 2.81981L29.6246 1.90003ZM35.5481 1.42652L34.9732 2.46672L34.9841 2.47259L35.5481 1.42652ZM37.1728 2.93989L36.1511 3.54685L36.1538 3.55131L37.1728 2.93989ZM37.7299 4.92675V6.11516H38.9183V4.92675H37.7299ZM35.9473 4.92675H34.7589V6.11516H35.9473V4.92675ZM35.6223 3.58051L34.5796 4.15073L34.5835 4.15765L35.6223 3.58051ZM34.6382 2.65207L34.0889 3.70602L34.1008 3.71201L34.6382 2.65207ZM30.4602 3.37625L29.4514 2.74811L29.4471 2.75503L29.4428 2.762L30.4602 3.37625ZM30.3395 5.27956L29.2766 5.81103L29.285 5.82799L29.2941 5.84467L30.3395 5.27956ZM30.9059 5.92018L30.1746 6.85709L30.1856 6.86548L30.9059 5.92018ZM31.89 6.46796L31.4281 7.56294L31.4341 7.56545L31.89 6.46796ZM33.3291 6.95075L33.6519 5.80703L33.6472 5.8057L33.3291 6.95075ZM36.69 8.57553L35.8802 9.44532L35.888 9.45253L35.8959 9.45961L36.69 8.57553ZM37.4978 9.69894L36.3989 10.1514L36.4029 10.1613L36.4072 10.171L37.4978 9.69894ZM36.4765 13.747L35.7567 12.8013L36.4765 13.747ZM34.9817 14.4804L35.3131 15.6217L35.321 15.6194L34.9817 14.4804ZM31.203 14.4711L30.8734 15.6129L30.8765 15.6138L31.203 14.4711ZM29.5596 13.6912L28.8723 14.6608L28.8781 14.6648L29.5596 13.6912ZM28.3805 12.41L27.3464 12.9956L27.3506 13.003L27.3549 13.0104L28.3805 12.41ZM27.9441 10.6274V9.43898H26.7557V10.6274H27.9441ZM29.7267 10.6274H30.9151V9.43898H29.7267V10.6274ZM29.996 11.8251L28.949 12.3874L28.9534 12.3955L29.996 11.8251ZM30.7294 12.6421L30.0479 13.6157L30.057 13.622L30.7294 12.6421ZM31.7972 13.1249L31.4921 14.2735L31.5026 14.2763L31.5131 14.2789L31.7972 13.1249ZM35.6223 12.2707L34.654 11.5817L34.6496 11.588L34.6452 11.5943L35.6223 12.2707ZM37.1543 11.1287C37.1543 10.69 37.0855 10.2532 36.9168 9.84208L34.7178 10.7442C34.7472 10.8158 34.7775 10.9361 34.7775 11.1287H37.1543ZM36.9301 9.87587C36.7515 9.39966 36.4434 9.01252 36.0698 8.70594L34.5621 10.5434C34.6713 10.6329 34.6975 10.6915 34.7046 10.7104L36.9301 9.87587ZM36.0814 8.71564C35.7238 8.41443 35.2798 8.17064 34.798 7.96517L33.8656 10.1515C34.2256 10.305 34.4377 10.4388 34.5505 10.5337L36.0814 8.71564ZM34.8039 7.96769C34.328 7.76171 33.751 7.5633 33.0858 7.36954L32.4211 9.65153C33.0309 9.82915 33.5062 9.99592 33.8597 10.1489L34.8039 7.96769ZM33.0911 7.3711C32.4644 7.18543 31.9117 6.98323 31.4291 6.76691L30.4569 8.93577C31.0513 9.20225 31.7055 9.43951 32.4158 9.64998L33.0911 7.3711ZM31.4394 6.77159C30.9765 6.55874 30.606 6.32843 30.3146 6.08867L28.8047 7.92425C29.2807 8.31583 29.8325 8.64878 30.4466 8.93109L31.4394 6.77159ZM30.3146 6.08867C30.048 5.86937 29.864 5.6356 29.7405 5.38871L27.6147 6.45166C27.8997 7.02179 28.3037 7.51221 28.8047 7.92425L30.3146 6.08867ZM29.7405 5.38871C29.6305 5.16862 29.5596 4.88795 29.5596 4.51824H27.1828C27.1828 5.20076 27.3162 5.85472 27.6147 6.45166L29.7405 5.38871ZM29.5596 4.51824C29.5596 4.16075 29.6319 3.85397 29.765 3.58015L27.6273 2.54102C27.3272 3.1585 27.1828 3.82349 27.1828 4.51824H29.5596ZM29.765 3.58015C29.9025 3.29722 30.1006 3.0453 30.3756 2.82107L28.8736 0.978994C28.344 1.41086 27.9231 1.93264 27.6273 2.54102L29.765 3.58015ZM30.3771 2.81981C30.6596 2.58867 31.0126 2.39441 31.4543 2.24879L30.7102 -0.0085159C30.0254 0.21724 29.4066 0.542913 28.8721 0.980255L30.3771 2.81981ZM31.4543 2.24879C31.8792 2.10872 32.3793 2.03001 32.967 2.03001V-0.346799C32.1682 -0.346799 31.4118 -0.239823 30.7102 -0.0085159L31.4543 2.24879ZM32.967 2.03001C33.8322 2.03001 34.4835 2.19604 34.9732 2.46667L36.1229 0.386383C35.2014 -0.122878 34.132 -0.346799 32.967 -0.346799V2.03001ZM34.9841 2.47259C35.5282 2.76593 35.9017 3.12706 36.1511 3.54685L38.1946 2.33292C37.7012 1.50241 36.9915 0.854636 36.112 0.38046L34.9841 2.47259ZM36.1538 3.55131C36.417 3.99004 36.5415 4.44167 36.5415 4.92675H38.9183C38.9183 4.0006 38.6714 3.12765 38.1919 2.32846L36.1538 3.55131ZM37.7299 3.73835H35.9473V6.11516H37.7299V3.73835ZM37.1357 4.92675C37.1357 4.24546 36.9888 3.59299 36.6612 3.00337L34.5835 4.15765C34.6892 4.34792 34.7589 4.59295 34.7589 4.92675H37.1357ZM36.665 3.0103C36.3227 2.3844 35.8086 1.91308 35.1756 1.59213L34.1008 3.71201C34.3467 3.83671 34.4887 3.98435 34.5797 4.15072L36.665 3.0103ZM35.1874 1.59818C34.5283 1.25471 33.7671 1.12014 32.967 1.12014V3.49695C33.5162 3.49695 33.8692 3.5914 34.089 3.70596L35.1874 1.59818ZM32.967 1.12014C32.2209 1.12014 31.5098 1.23087 30.8896 1.51781L31.8877 3.67491C32.0969 3.5781 32.4381 3.49695 32.967 3.49695V1.12014ZM30.8896 1.51781C30.3037 1.78888 29.7989 2.18988 29.4514 2.74811L31.469 4.00439C31.53 3.90653 31.6441 3.7876 31.8877 3.67491L30.8896 1.51781ZM29.4428 2.762C29.122 3.29334 28.9747 3.88423 28.9747 4.49967H31.3515C31.3515 4.27331 31.4022 4.11526 31.4776 3.9905L29.4428 2.762ZM28.9747 4.49967C28.9747 4.95332 29.0698 5.39743 29.2766 5.81103L31.4024 4.74809C31.374 4.69128 31.3515 4.61546 31.3515 4.49967H28.9747ZM29.2941 5.84467C29.512 6.24779 29.8213 6.58126 30.1747 6.85702L31.637 4.98335C31.4828 4.86297 31.4146 4.76936 31.385 4.71445L29.2941 5.84467ZM30.1856 6.86548C30.5455 7.13965 30.967 7.36841 31.4281 7.56292L32.3519 5.37301C32.0207 5.23328 31.7862 5.09685 31.6261 4.97489L30.1856 6.86548ZM31.4341 7.56545C31.8931 7.75612 32.4212 7.93197 33.011 8.0958L33.6472 5.8057C33.1228 5.66005 32.6915 5.51405 32.3459 5.37048L31.4341 7.56545ZM33.0063 8.09447C33.7264 8.29774 34.3222 8.51723 34.8036 8.74724L35.8283 6.60264C35.1956 6.30034 34.4668 6.03704 33.6519 5.80704L33.0063 8.09447ZM34.8036 8.74724C35.2787 8.9742 35.629 9.21135 35.8802 9.44532L37.4998 7.70574C37.0331 7.27123 36.4674 6.90799 35.8283 6.60264L34.8036 8.74724ZM35.8959 9.45961C36.139 9.678 36.2987 9.90813 36.3989 10.1514L38.5967 9.24646C38.3502 8.64797 37.9715 8.12915 37.4842 7.69145L35.8959 9.45961ZM36.4072 10.171C36.5124 10.4142 36.5786 10.72 36.5786 11.1102H38.9554C38.9554 10.4481 38.8421 9.81307 38.5884 9.22688L36.4072 10.171ZM36.5786 11.1102C36.5786 11.4963 36.5018 11.8097 36.3699 12.0735L38.4957 13.1364C38.8095 12.509 38.9554 11.8258 38.9554 11.1102H36.5786ZM36.3699 12.0735C36.232 12.3492 36.0337 12.5905 35.7567 12.8013L37.1963 14.6926C37.7487 14.2721 38.1879 13.7521 38.4957 13.1364L36.3699 12.0735ZM35.7567 12.8013C35.4733 13.0171 35.1091 13.2025 34.6425 13.3415L35.321 15.6194C36.018 15.4117 36.6503 15.1082 37.1963 14.6926L35.7567 12.8013ZM34.6504 13.3391C34.2003 13.4698 33.6706 13.5427 33.0506 13.5427V15.9195C33.8541 15.9195 34.6118 15.8253 35.3131 15.6217L34.6504 13.3391ZM33.0506 13.5427C32.5368 13.5427 32.0308 13.4717 31.5294 13.3285L30.8765 15.6138C31.5882 15.8172 32.314 15.9195 33.0506 15.9195V13.5427ZM31.5325 13.3293C31.0536 13.1911 30.6254 12.9867 30.2411 12.7177L28.8781 14.6648C29.4841 15.089 30.1515 15.4046 30.8734 15.6129L31.5325 13.3293ZM30.2469 12.7217C29.8929 12.4708 29.6163 12.1686 29.4061 11.8096L27.3549 13.0104C27.7389 13.6664 28.2484 14.2184 28.8724 14.6608L30.2469 12.7217ZM29.4146 11.8244C29.2385 11.5135 29.1325 11.1265 29.1325 10.6274H26.7557C26.7557 11.4776 26.9406 12.2791 27.3464 12.9956L29.4146 11.8244ZM27.9441 11.8158H29.7267V9.43898H27.9441V11.8158ZM28.5383 10.6274C28.5383 11.2444 28.6581 11.8457 28.949 12.3873L31.043 11.2628C30.9749 11.136 30.9151 10.9388 30.9151 10.6274H28.5383ZM28.9534 12.3955C29.2216 12.8856 29.5903 13.2953 30.0479 13.6157L31.411 11.6685C31.2496 11.5556 31.1294 11.4206 31.0385 11.2546L28.9534 12.3955ZM30.057 13.622C30.4923 13.9207 30.974 14.1359 31.4921 14.2735L32.1022 11.9763C31.828 11.9035 31.598 11.7968 31.4019 11.6622L30.057 13.622ZM31.5131 14.2789C32.0125 14.4018 32.5259 14.4619 33.0506 14.4619V12.085C32.7086 12.085 32.3864 12.0461 32.0812 11.9709L31.5131 14.2789ZM33.0506 14.4619C33.7785 14.4619 34.4671 14.3619 35.0796 14.1169L34.1968 11.9101C33.9428 12.0117 33.5729 12.085 33.0506 12.085V14.4619ZM35.0796 14.1169C35.6872 13.8738 36.2201 13.4952 36.5994 12.9472L34.6452 11.5943C34.579 11.69 34.4558 11.8065 34.1968 11.9101L35.0796 14.1169ZM36.5906 12.9597C36.9788 12.4142 37.1543 11.7861 37.1543 11.1287H34.7775C34.7775 11.3503 34.7239 11.4835 34.654 11.5817L36.5906 12.9597ZM43.9969 4.49967H45.1853V3.31126H43.9969V4.49967ZM43.9969 5.81806V7.00646H45.1853V5.81806H43.9969ZM38.5655 5.81806H37.3771V7.00646H38.5655V5.81806ZM38.5655 4.49967V3.31126H37.3771V4.49967H38.5655ZM40.4038 2.05787V0.86946H39.2154V2.05787H40.4038ZM42.1214 2.05787H43.3098V0.86946H42.1214V2.05787ZM43.6719 13.2177L43.8597 14.3912L43.8781 14.3883L43.8964 14.3848L43.6719 13.2177ZM44.034 13.1435L45.2224 13.1356L45.2126 11.6518L43.7668 11.9855L44.034 13.1435ZM44.0433 14.5454L44.4036 15.6779L45.2375 15.4126L45.2317 14.5375L44.0433 14.5454ZM43.5048 14.6661L43.3094 13.4939L43.2905 13.497L43.2717 13.5008L43.5048 14.6661ZM40.7102 13.6448L39.6539 14.1895L39.6591 14.1994L39.6644 14.2092L40.7102 13.6448ZM42.8085 4.49967V5.81806H45.1853V4.49967H42.8085ZM43.9969 4.62965H38.5655V7.00646H43.9969V4.62965ZM39.7539 5.81806V4.49967H37.3771V5.81806H39.7539ZM38.5655 5.68807H43.9969V3.31126H38.5655V5.68807ZM40.4038 3.24627H42.1214V0.86946H40.4038V3.24627ZM40.933 2.05787V12.0572H43.3098V2.05787H40.933ZM40.933 12.0572C40.933 12.484 40.9926 12.9984 41.2634 13.4445L43.2951 12.211C43.3306 12.2696 43.3317 12.2986 43.3251 12.2667C43.3188 12.2359 43.3098 12.1696 43.3098 12.0572H40.933ZM41.2634 13.4445C41.4914 13.8201 41.838 14.1407 42.312 14.2987L43.0636 12.0439C43.1237 12.0639 43.1797 12.0958 43.2252 12.1341C43.2689 12.1709 43.2898 12.2023 43.2951 12.211L41.2634 13.4445ZM42.312 14.2987C42.6106 14.3983 42.918 14.4433 43.2263 14.4433V12.0665C43.1508 12.0665 43.0992 12.0558 43.0636 12.0439L42.312 14.2987ZM43.2263 14.4433C43.4374 14.4433 43.649 14.4249 43.8597 14.3912L43.4842 12.0443C43.3854 12.0601 43.2998 12.0665 43.2263 12.0665V14.4433ZM43.8964 14.3848C44.0606 14.3532 44.1987 14.3251 44.3012 14.3014L43.7668 11.9855C43.7084 11.999 43.6051 12.0204 43.4475 12.0507L43.8964 14.3848ZM42.8456 13.1513L42.8549 14.5533L45.2317 14.5375L45.2224 13.1356L42.8456 13.1513ZM43.683 13.4129C43.6224 13.4322 43.5045 13.4614 43.3094 13.4939L43.7002 15.8383C43.9508 15.7966 44.1919 15.7453 44.4036 15.6779L43.683 13.4129ZM43.2717 13.5008C43.1555 13.524 42.9754 13.5427 42.7156 13.5427V15.9195C43.0749 15.9195 43.4208 15.8948 43.7379 15.8314L43.2717 13.5008ZM42.7156 13.5427C42.4567 13.5427 42.2454 13.4924 42.0638 13.4064L41.0463 15.5544C41.5703 15.8026 42.1328 15.9195 42.7156 15.9195V13.5427ZM42.0638 13.4064C41.97 13.362 41.8632 13.279 41.756 13.0804L39.6644 14.2092C39.9781 14.7905 40.4346 15.2646 41.0463 15.5544L42.0638 13.4064ZM41.7665 13.1002C41.6816 12.9357 41.5922 12.6138 41.5922 12.0479H39.2154C39.2154 12.819 39.3303 13.5617 39.6539 14.1895L41.7665 13.1002ZM41.5922 12.0479V2.05787H39.2154V12.0479H41.5922ZM45.6867 7.40569L46.8118 7.78824L46.813 7.78484L45.6867 7.40569ZM46.5965 5.78092L47.4954 6.55833L47.5005 6.55233L46.5965 5.78092ZM48.0356 4.70393L48.5238 5.78748L48.5336 5.78295L48.0356 4.70393ZM51.8329 4.70393L51.3349 5.78295L51.342 5.78623L51.3492 5.78942L51.8329 4.70393ZM53.2813 5.78092L52.3773 6.55233L52.3828 6.5588L52.3884 6.5652L53.2813 5.78092ZM54.2005 7.40569L53.0742 7.78484L53.0753 7.78824L54.2005 7.40569ZM54.2005 11.6487L53.0753 11.2661L53.0753 11.2661L54.2005 11.6487ZM53.2813 13.2734L52.3832 12.4951L52.3824 12.496L53.2813 13.2734ZM51.8422 14.3504L52.3349 15.4319L52.3402 15.4295L51.8422 14.3504ZM48.0449 14.3504L47.5469 15.4295L47.5567 15.4339L48.0449 14.3504ZM46.5965 13.2734L45.6925 14.0449L45.698 14.0513L45.7037 14.0577L46.5965 13.2734ZM47.265 11.0545L46.1159 11.3577L46.117 11.3617L47.265 11.0545ZM47.7942 12.2243L46.8165 12.8998L46.8206 12.9058L46.8248 12.9117L47.7942 12.2243ZM48.6948 13.032L48.1207 14.0726L48.1276 14.0764L48.1346 14.0801L48.6948 13.032ZM51.183 13.032L51.7508 14.0761L51.7571 14.0726L51.183 13.032ZM52.6035 11.0545L51.4584 10.7364L51.4555 10.7473L52.6035 11.0545ZM52.6035 8.01846L51.4545 8.32169L51.457 8.33121L51.4597 8.34069L52.6035 8.01846ZM52.065 6.83934L51.0817 7.50663L51.0885 7.51676L51.0956 7.52675L52.065 6.83934ZM51.1737 6.02231L50.592 7.05861L50.5997 7.06285L51.1737 6.02231ZM48.6855 6.02231L48.1114 4.98174L48.1038 4.98604L48.6855 6.02231ZM47.7942 6.83934L46.819 6.16017L46.8165 6.16381L47.7942 6.83934ZM47.265 8.01846L48.413 8.32568L48.4141 8.32169L47.265 8.01846ZM46.5594 9.63395V9.42041H44.1826V9.63395H46.5594ZM46.5594 9.42041C46.5594 8.81243 46.6475 8.27149 46.8118 7.78824L44.5615 7.02314C44.3049 7.77782 44.1826 8.58002 44.1826 9.42041H46.5594ZM46.813 7.78484C46.9786 7.29282 47.2089 6.88958 47.4954 6.55832L45.6977 5.00352C45.1919 5.58832 44.8156 6.26827 44.5604 7.02654L46.813 7.78484ZM47.5005 6.55233C47.7813 6.22325 48.1184 5.97006 48.5238 5.78743L47.5474 3.62042C46.8263 3.94533 46.204 4.41014 45.6925 5.0095L47.5005 6.55233ZM48.5336 5.78295C48.9219 5.60373 49.3802 5.50239 49.9296 5.50239V3.12557C49.0802 3.12557 48.2758 3.2842 47.5376 3.6249L48.5336 5.78295ZM49.9296 5.50239C50.4869 5.50239 50.9479 5.60434 51.3349 5.78295L52.3309 3.6249C51.5914 3.28358 50.7836 3.12557 49.9296 3.12557V5.50239ZM51.3492 5.78942C51.7605 5.97272 52.0986 6.22577 52.3773 6.55233L54.1853 5.0095C53.6717 4.40762 53.0443 3.94268 52.3167 3.61843L51.3492 5.78942ZM52.3884 6.5652C52.6786 6.89557 52.9098 7.29652 53.0742 7.78484L55.3268 7.02654C55.0703 6.26456 54.6886 5.58233 54.1742 4.99664L52.3884 6.5652ZM53.0753 7.78824C53.2396 8.27149 53.3277 8.81243 53.3277 9.42041H55.7045C55.7045 8.58002 55.5822 7.77782 55.3256 7.02314L53.0753 7.78824ZM53.3277 9.42041V9.63395H55.7045V9.42041H53.3277ZM53.3277 9.63395C53.3277 10.2419 53.2396 10.7829 53.0753 11.2661L55.3256 12.0312C55.5822 11.2765 55.7045 10.4743 55.7045 9.63395H53.3277ZM53.0753 11.2661C52.9111 11.7492 52.6787 12.1542 52.3832 12.4951L54.1794 14.0518C54.6886 13.4642 55.069 12.7861 55.3256 12.0312L53.0753 11.2661ZM52.3824 12.496C52.0997 12.823 51.7578 13.0805 51.3442 13.2714L52.3402 15.4295C53.0532 15.1004 53.6707 14.64 54.1802 14.0508L52.3824 12.496ZM51.3496 13.269C50.9691 13.4423 50.5097 13.5427 49.9482 13.5427V15.9195C50.798 15.9195 51.6012 15.7661 52.3349 15.4319L51.3496 13.269ZM49.9482 13.5427C49.387 13.5427 48.9225 13.4424 48.5331 13.2669L47.5567 15.4339C48.2938 15.766 49.0981 15.9195 49.9482 15.9195V13.5427ZM48.5429 13.2714C48.1277 13.0798 47.7802 12.8202 47.4894 12.4892L45.7037 14.0577C46.2175 14.6427 46.8356 15.1012 47.5469 15.4295L48.5429 13.2714ZM47.5005 12.502C47.2088 12.1602 46.9773 11.7529 46.8118 11.2661L44.5615 12.0312C44.8169 12.7824 45.1919 13.4582 45.6925 14.0449L47.5005 12.502ZM46.8118 11.2661C46.6475 10.7829 46.5594 10.2419 46.5594 9.63395H44.1826C44.1826 10.4743 44.3049 11.2765 44.5615 12.0312L46.8118 11.2661ZM45.9002 9.42041V9.63395H48.277V9.42041H45.9002ZM45.9002 9.63395C45.9002 10.2288 45.97 10.8048 46.1159 11.3577L48.4141 10.7512C48.3248 10.4128 48.277 10.0419 48.277 9.63395H45.9002ZM46.117 11.3617C46.2663 11.9197 46.4965 12.4367 46.8165 12.8998L48.772 11.5488C48.6215 11.3311 48.4989 11.0681 48.413 10.7473L46.117 11.3617ZM46.8248 12.9117C47.1678 13.3954 47.6022 13.7865 48.1207 14.0726L49.2689 11.9915C49.0694 11.8815 48.9034 11.734 48.7636 11.5369L46.8248 12.9117ZM48.1346 14.0801C48.6932 14.3787 49.3096 14.5083 49.9482 14.5083V12.1315C49.6336 12.1315 49.4144 12.0691 49.255 11.984L48.1346 14.0801ZM49.9482 14.5083C50.5829 14.5083 51.1961 14.3777 51.7508 14.076L50.6152 11.9881C50.4644 12.0701 50.2544 12.1315 49.9482 12.1315V14.5083ZM51.7571 14.0726C52.2786 13.7849 52.7134 13.3901 53.0521 12.8998L51.0966 11.5488C50.9649 11.7394 50.8054 11.8831 50.6089 11.9915L51.7571 14.0726ZM53.0521 12.8998C53.3721 12.4367 53.6022 11.9197 53.7516 11.3617L51.4555 10.7473C51.3697 11.0681 51.247 11.3311 51.0966 11.5488L53.0521 12.8998ZM53.7486 11.3725C53.9035 10.815 53.9776 10.2338 53.9776 9.63395H51.6008C51.6008 10.0368 51.5512 10.4026 51.4585 10.7364L53.7486 11.3725ZM53.9776 9.63395V9.42041H51.6008V9.63395H53.9776ZM53.9776 9.42041C53.9776 8.82545 53.9031 8.24902 53.7474 7.69624L51.4597 8.34069C51.5515 8.66684 51.6008 9.02504 51.6008 9.42041H53.9776ZM53.7526 7.71524C53.6024 7.14615 53.3665 6.62014 53.0345 6.15193L51.0956 7.52675C51.2464 7.7394 51.3694 7.99948 51.4545 8.32169L53.7526 7.71524ZM53.0484 6.17205C52.7105 5.67399 52.2744 5.27229 51.7478 4.98177L50.5997 7.06285C50.7911 7.16847 50.9492 7.31146 51.0817 7.50663L53.0484 6.17205ZM51.7555 4.98604C51.1958 4.6718 50.5736 4.53681 49.9296 4.53681V6.91362C50.2389 6.91362 50.4461 6.97669 50.592 7.05858L51.7555 4.98604ZM49.9296 4.53681C49.2883 4.53681 48.6707 4.67322 48.1114 4.98177L49.2596 7.06285C49.4184 6.97527 49.6301 6.91362 49.9296 6.91362V4.53681ZM48.1038 4.98604C47.5876 5.27581 47.1583 5.67301 46.819 6.16018L48.7694 7.51851C48.9129 7.31244 49.0778 7.16495 49.2673 7.05858L48.1038 4.98604ZM46.8165 6.16381C46.4946 6.62963 46.2647 7.15156 46.1159 7.71524L48.4141 8.32169C48.5005 7.99406 48.6234 7.72991 48.772 7.51487L46.8165 6.16381ZM46.117 7.71125C45.9703 8.25933 45.9002 8.8306 45.9002 9.42041H48.277C48.277 9.01988 48.3245 8.65652 48.413 8.32568L46.117 7.71125ZM58.3877 6.07802H59.5761V6.06055L59.5756 6.04308L58.3877 6.07802ZM58.3877 14.5454V15.7338H59.5761V14.5454H58.3877ZM56.6701 14.5454H55.4817V15.7338H56.6701V14.5454ZM56.6701 4.49967V3.31126H55.4817V4.49967H56.6701ZM58.3413 4.49967L59.5292 4.46473L59.4953 3.31126H58.3413V4.49967ZM61.5259 4.44396L62.7143 4.45087L62.7186 3.71163L62.0573 3.38102L61.5259 4.44396ZM61.5166 6.04088L61.2641 7.20216L62.6964 7.51354L62.705 6.04779L61.5166 6.04088ZM61.1081 5.98517L60.9898 7.16768L61.0206 7.17076L61.0515 7.17224L61.1081 5.98517ZM58.3599 7.47068L57.2564 7.02929L57.2519 7.04104L58.3599 7.47068ZM58.1278 8.4734L58.7216 9.50278L59.2485 9.1988L59.3101 8.59363L58.1278 8.4734ZM57.645 8.75193H56.4566V10.8095L58.2389 9.78131L57.645 8.75193ZM57.8214 7.0436L56.6638 6.77439L56.661 6.78723L57.8214 7.0436ZM58.3877 5.63237L59.3972 6.25948L59.4014 6.25267L58.3877 5.63237ZM59.3533 4.66679L59.9552 5.69154L59.96 5.68864L59.3533 4.66679ZM61.1916 4.3604L60.9672 5.52742L60.989 5.53161L61.0109 5.53499L61.1916 4.3604ZM57.1993 6.07802V14.5454H59.5761V6.07802H57.1993ZM58.3877 13.357H56.6701V15.7338H58.3877V13.357ZM57.8585 14.5454V4.49967H55.4817V14.5454H57.8585ZM56.6701 5.68807H58.3413V3.31126H56.6701V5.68807ZM57.1534 4.53461L57.1998 6.11296L59.5756 6.04308L59.5292 4.46473L57.1534 4.53461ZM60.3375 4.43705L60.3282 6.03397L62.705 6.04779L62.7143 4.45087L60.3375 4.43705ZM61.769 4.8796C61.5697 4.83627 61.3678 4.80779 61.1646 4.79811L61.0515 7.17224C61.1084 7.17494 61.1787 7.1836 61.2641 7.20216L61.769 4.8796ZM61.2263 4.80267C61.0538 4.78542 60.8706 4.7782 60.681 4.7782V7.15501C60.8132 7.15501 60.9148 7.16018 60.9898 7.16768L61.2263 4.80267ZM60.681 4.7782C60.1623 4.7782 59.6551 4.85922 59.1828 5.05201L60.0809 7.25258C60.2152 7.19778 60.4074 7.15501 60.681 7.15501V4.7782ZM59.1828 5.05201C58.7335 5.2354 58.332 5.50178 57.9973 5.85623L59.7252 7.48821C59.8114 7.39701 59.9237 7.31677 60.0809 7.25258L59.1828 5.05201ZM57.9973 5.85623C57.6755 6.19693 57.4309 6.59322 57.2565 7.02932L59.4633 7.91204C59.5364 7.72918 59.6261 7.59317 59.7252 7.48821L57.9973 5.85623ZM57.2519 7.04104C57.0912 7.45546 56.992 7.89534 56.9455 8.35316L59.3101 8.59363C59.3378 8.32109 59.3934 8.09249 59.4679 7.90032L57.2519 7.04104ZM57.5339 7.44402L57.0511 7.72255L58.2389 9.78131L58.7216 9.50278L57.5339 7.44402ZM58.8334 8.75193C58.8334 8.22204 58.8848 7.73927 58.9818 7.29997L56.661 6.78723C56.5228 7.41254 56.4566 8.06866 56.4566 8.75193H58.8334ZM58.9789 7.31279C59.0772 6.89006 59.2207 6.54365 59.3972 6.25947L57.3783 5.00527C57.0472 5.53811 56.8131 6.13252 56.6639 6.77441L58.9789 7.31279ZM59.4014 6.25267C59.5611 5.99173 59.7462 5.81427 59.9552 5.69153L58.7515 3.64204C58.1806 3.97734 57.7219 4.4436 57.3741 5.01206L59.4014 6.25267ZM59.96 5.68864C60.1415 5.58088 60.3942 5.50239 60.7645 5.50239V3.12557C60.0456 3.12557 59.3574 3.28228 58.7466 3.64493L59.96 5.68864ZM60.7645 5.50239C60.7934 5.50239 60.858 5.50643 60.9672 5.52742L61.4161 3.19338C61.2034 3.15248 60.9833 3.12557 60.7645 3.12557V5.50239ZM61.0109 5.53499C61.0387 5.53926 61.0607 5.54312 61.0776 5.54638C61.0948 5.54969 61.1043 5.55196 61.1077 5.55278C61.1115 5.55374 61.1041 5.55206 61.0883 5.54673C61.0801 5.54394 61.0681 5.53963 61.053 5.53352C61.0381 5.52746 61.0181 5.51876 60.9944 5.5069L62.0573 3.38102C61.8127 3.25871 61.535 3.21085 61.3723 3.18581L61.0109 5.53499ZM66.1031 13.5056L67.2189 13.9147L67.2292 13.8865L67.2381 13.8578L66.1031 13.5056ZM68.8977 4.49967V3.31126H68.0222L67.7627 4.14746L68.8977 4.49967ZM70.736 4.49967L71.8586 4.88973L72.4071 3.31126H70.736V4.49967ZM66.7066 16.0959L67.8193 16.5132L67.8244 16.4996L67.8291 16.486L66.7066 16.0959ZM66.3352 16.8944L65.291 16.3269L65.2837 16.3403L65.2768 16.3539L66.3352 16.8944ZM64.9054 18.352L64.3899 17.2813L64.3778 17.2871L64.366 17.2931L64.9054 18.352ZM62.7607 18.4542L61.5723 18.4621L61.5783 19.3523L62.4342 19.5968L62.7607 18.4542ZM62.7514 17.0615L62.8988 15.8823L61.554 15.7142L61.563 17.0694L62.7514 17.0615ZM62.9835 17.0801L63.1148 15.8989L63.0841 15.8955L63.0533 15.8937L62.9835 17.0801ZM64.2091 16.9408L63.8029 15.8239L63.7918 15.828L63.7808 15.8322L64.2091 16.9408ZM64.8961 16.4301L63.9753 15.6789L63.9645 15.6921L63.9542 15.7056L64.8961 16.4301ZM65.3882 15.4553L64.2724 15.0462L64.2654 15.0652L64.2591 15.0845L65.3882 15.4553ZM64.0512 4.49967L65.1783 4.12265L64.9068 3.31126H64.0512V4.49967ZM66.6602 12.2986L67.8141 12.0145L67.8025 11.9675L67.7872 11.9216L66.6602 12.2986ZM67.1058 14.109L67.6468 15.1672L68.4847 14.7388L68.2598 13.825L67.1058 14.109ZM65.871 14.7404L64.7531 15.1437L65.211 16.4126L66.412 15.7985L65.871 14.7404ZM62.1758 4.49967V3.31126H60.4836L61.0579 4.90303L62.1758 4.49967ZM67.2381 13.8578L70.0327 4.85187L67.7627 4.14746L64.9681 13.1533L67.2381 13.8578ZM68.8977 5.68807H70.736V3.31126H68.8977V5.68807ZM69.6134 4.1096L65.584 15.7058L67.8291 16.486L71.8586 4.88973L69.6134 4.1096ZM65.5938 15.6786C65.5241 15.8647 65.4251 16.0802 65.291 16.3269L67.3794 17.4618C67.5548 17.1391 67.7034 16.8223 67.8193 16.5132L65.5938 15.6786ZM65.2768 16.3539C65.1791 16.5452 65.0485 16.7352 64.8783 16.9234L66.6408 18.518C66.941 18.1862 67.1942 17.8253 67.3936 17.4348L65.2768 16.3539ZM64.8783 16.9234C64.7521 17.0629 64.5938 17.1831 64.3899 17.2813L65.4209 19.4228C65.8855 19.1991 66.2966 18.8984 66.6408 18.518L64.8783 16.9234ZM64.366 17.2931C64.2408 17.3569 64.0416 17.4143 63.7263 17.4143V19.7911C64.327 19.7911 64.9139 19.6814 65.4448 19.4109L64.366 17.2931ZM63.7263 17.4143C63.6868 17.4143 63.5889 17.4077 63.4129 17.3767L62.9998 19.7173C63.2447 19.7605 63.4934 19.7911 63.7263 19.7911V17.4143ZM63.4129 17.3767C63.3152 17.3594 63.2381 17.3447 63.1795 17.3325C63.1504 17.3264 63.1279 17.3214 63.1112 17.3175C63.0939 17.3134 63.0867 17.3113 63.0872 17.3115L62.4342 19.5968C62.586 19.6402 62.7886 19.68 62.9998 19.7173L63.4129 17.3767ZM63.9491 18.4462L63.9398 17.0536L61.563 17.0694L61.5723 18.4621L63.9491 18.4462ZM62.604 18.2407C62.6945 18.252 62.8044 18.26 62.9137 18.2664L63.0533 15.8937C63.0063 15.8909 62.9694 15.8884 62.9413 15.8862C62.9275 15.885 62.9169 15.8841 62.9092 15.8833C62.9012 15.8826 62.8981 15.8822 62.8988 15.8823L62.604 18.2407ZM62.8523 18.2612C62.9601 18.2732 63.0982 18.287 63.2156 18.287V15.9102C63.2312 15.9102 63.2397 15.9107 63.2376 15.9106C63.2365 15.9106 63.2309 15.9102 63.2199 15.9094C63.1974 15.9076 63.1631 15.9043 63.1148 15.8989L62.8523 18.2612ZM63.2156 18.287C63.7058 18.287 64.191 18.2218 64.6374 18.0493L63.7808 15.8322C63.6824 15.8702 63.5054 15.9102 63.2156 15.9102V18.287ZM64.6152 18.0576C65.1109 17.8774 65.522 17.5656 65.8381 17.1547L63.9542 15.7056C63.8988 15.7775 63.852 15.8061 63.8029 15.8239L64.6152 18.0576ZM65.817 17.1814C66.1319 16.7953 66.3539 16.3237 66.5173 15.826L64.2591 15.0845C64.1502 15.4163 64.0441 15.5946 63.9753 15.6789L65.817 17.1814ZM66.504 15.8644L67.2189 13.9147L64.9873 13.0964L64.2724 15.0462L66.504 15.8644ZM62.9242 4.87668L65.5331 12.6756L67.7872 11.9216L65.1783 4.12265L62.9242 4.87668ZM65.5062 12.5826L65.9518 14.3931L68.2598 13.825L67.8141 12.0145L65.5062 12.5826ZM66.5648 13.0509L65.33 13.6823L66.412 15.7985L67.6468 15.1672L66.5648 13.0509ZM66.9888 14.337L63.2936 4.09631L61.0579 4.90303L64.7531 15.1437L66.9888 14.337ZM62.1758 5.68807H64.0512V3.31126H62.1758V5.68807ZM10.573 30.4057L11.6981 30.7882L11.6993 30.7848L10.573 30.4057ZM11.4828 28.7809L12.3817 29.5583L12.3869 29.5523L11.4828 28.7809ZM12.9219 27.7039L13.4101 28.7875L13.4199 28.7829L12.9219 27.7039ZM16.7193 27.7039L16.2212 28.7829L16.2284 28.7862L16.2355 28.7894L16.7193 27.7039ZM18.1676 28.7809L17.2636 29.5523L17.2691 29.5588L17.2748 29.5652L18.1676 28.7809ZM19.0868 30.4057L17.9605 30.7848L17.9616 30.7882L19.0868 30.4057ZM19.0868 34.6487L17.9616 34.2661L17.9616 34.2661L19.0868 34.6487ZM18.1676 36.2734L17.2696 35.4951L17.2688 35.496L18.1676 36.2734ZM16.7285 37.3504L17.2212 38.4319L17.2266 38.4295L16.7285 37.3504ZM12.9312 37.3504L12.4332 38.4295L12.443 38.4339L12.9312 37.3504ZM11.4828 36.2734L10.5788 37.0449L10.5844 37.0513L10.59 37.0577L11.4828 36.2734ZM12.1513 34.0545L11.0022 34.3577L11.0033 34.3617L12.1513 34.0545ZM12.6805 35.2243L11.7028 35.8998L11.7069 35.9058L11.7111 35.9117L12.6805 35.2243ZM13.5811 36.032L13.007 37.0726L13.014 37.0764L13.0209 37.0801L13.5811 36.032ZM16.0694 36.032L16.6371 37.0761L16.6434 37.0726L16.0694 36.032ZM17.4899 34.0545L16.3448 33.7364L16.3419 33.7473L17.4899 34.0545ZM17.4899 31.0185L16.3408 31.3217L16.3433 31.3312L16.346 31.3407L17.4899 31.0185ZM16.9514 29.8393L15.968 30.5066L15.9749 30.5168L15.9819 30.5267L16.9514 29.8393ZM16.0601 29.0223L15.4783 30.0586L15.486 30.0629L16.0601 29.0223ZM13.5718 29.0223L12.9977 27.9817L12.9901 27.986L13.5718 29.0223ZM12.6805 29.8393L11.7053 29.1602L11.7028 29.1638L12.6805 29.8393ZM12.1513 31.0185L13.2993 31.3257L13.3004 31.3217L12.1513 31.0185ZM11.4457 32.634V32.4204H9.0689V32.634H11.4457ZM11.4457 32.4204C11.4457 31.8124 11.5338 31.2715 11.6981 30.7882L9.44782 30.0231C9.19123 30.7778 9.0689 31.58 9.0689 32.4204H11.4457ZM11.6993 30.7848C11.8649 30.2928 12.0952 29.8896 12.3817 29.5583L10.584 28.0035C10.0782 28.5883 9.70193 29.2683 9.44667 30.0265L11.6993 30.7848ZM12.3869 29.5523C12.6677 29.2233 13.0048 28.9701 13.4101 28.7874L12.4338 26.6204C11.7126 26.9453 11.0903 27.4101 10.5788 28.0095L12.3869 29.5523ZM13.4199 28.7829C13.8083 28.6037 14.2665 28.5024 14.816 28.5024V26.1256C13.9666 26.1256 13.1621 26.2842 12.4239 26.6249L13.4199 28.7829ZM14.816 28.5024C15.3733 28.5024 15.8343 28.6043 16.2212 28.7829L17.2173 26.6249C16.4777 26.2836 15.6699 26.1256 14.816 26.1256V28.5024ZM16.2355 28.7894C16.6468 28.9727 16.985 29.2258 17.2636 29.5523L19.0716 28.0095C18.558 27.4076 17.9306 26.9427 17.203 26.6184L16.2355 28.7894ZM17.2748 29.5652C17.565 29.8956 17.7961 30.2965 17.9605 30.7848L20.2131 30.0265C19.9566 29.2646 19.575 28.5823 19.0605 27.9966L17.2748 29.5652ZM17.9616 30.7882C18.1259 31.2715 18.2141 31.8124 18.2141 32.4204H20.5909C20.5909 31.58 20.4685 30.7778 20.2119 30.0231L17.9616 30.7882ZM18.2141 32.4204V32.634H20.5909V32.4204H18.2141ZM18.2141 32.634C18.2141 33.2419 18.1259 33.7829 17.9616 34.2661L20.2119 35.0312C20.4685 34.2765 20.5909 33.4743 20.5909 32.634H18.2141ZM17.9616 34.2661C17.7974 34.7492 17.565 35.1542 17.2696 35.4951L19.0657 37.0518C19.5749 36.4642 19.9553 35.7861 20.2119 35.0312L17.9616 34.2661ZM17.2688 35.496C16.986 35.823 16.6441 36.0805 16.2305 36.2714L17.2266 38.4295C17.9395 38.1004 18.557 37.64 19.0665 37.0508L17.2688 35.496ZM16.2359 36.269C15.8554 36.4423 15.396 36.5427 14.8345 36.5427V38.9195C15.6843 38.9195 16.4876 38.7661 17.2212 38.4319L16.2359 36.269ZM14.8345 36.5427C14.2733 36.5427 13.8088 36.4424 13.4194 36.2669L12.443 38.4339C13.1801 38.766 13.9845 38.9195 14.8345 38.9195V36.5427ZM13.4292 36.2714C13.014 36.0798 12.6665 35.8202 12.3757 35.4892L10.59 37.0577C11.1038 37.6427 11.7219 38.1012 12.4332 38.4295L13.4292 36.2714ZM12.3869 35.502C12.0952 35.1602 11.8636 34.7529 11.6981 34.2661L9.44782 35.0312C9.70322 35.7824 10.0783 36.4582 10.5788 37.0449L12.3869 35.502ZM11.6981 34.2661C11.5338 33.7829 11.4457 33.2419 11.4457 32.634H9.0689C9.0689 33.4743 9.19123 34.2765 9.44782 35.0312L11.6981 34.2661ZM10.7865 32.4204V32.634H13.1633V32.4204H10.7865ZM10.7865 32.634C10.7865 33.2288 10.8564 33.8048 11.0023 34.3577L13.3004 33.7512C13.2111 33.4128 13.1633 33.0419 13.1633 32.634H10.7865ZM11.0033 34.3617C11.1526 34.9197 11.3828 35.4367 11.7028 35.8998L13.6583 34.5488C13.5078 34.3311 13.3852 34.0681 13.2993 33.7473L11.0033 34.3617ZM11.7111 35.9117C12.0541 36.3954 12.4885 36.7865 13.007 37.0726L14.1552 34.9915C13.9558 34.8815 13.7898 34.734 13.65 34.5369L11.7111 35.9117ZM13.0209 37.0801C13.5796 37.3787 14.196 37.5083 14.8345 37.5083V35.1315C14.5199 35.1315 14.3007 35.0691 14.1413 34.984L13.0209 37.0801ZM14.8345 37.5083C15.4692 37.5083 16.0824 37.3777 16.6371 37.076L15.5016 34.9881C15.3507 35.0701 15.1407 35.1315 14.8345 35.1315V37.5083ZM16.6434 37.0726C17.1649 36.7849 17.5997 36.3901 17.9384 35.8998L15.9829 34.5488C15.8512 34.7394 15.6918 34.8831 15.4953 34.9915L16.6434 37.0726ZM17.9384 35.8998C18.2584 35.4367 18.4885 34.9197 18.6379 34.3617L16.3419 33.7473C16.256 34.0681 16.1333 34.3311 15.9829 34.5488L17.9384 35.8998ZM18.6349 34.3725C18.7898 33.815 18.864 33.2338 18.864 32.634H16.4871C16.4871 33.0368 16.4375 33.4026 16.3448 33.7364L18.6349 34.3725ZM18.864 32.634V32.4204H16.4871V32.634H18.864ZM18.864 32.4204C18.864 31.8254 18.7895 31.249 18.6338 30.6962L16.346 31.3407C16.4379 31.6668 16.4871 32.025 16.4871 32.4204H18.864ZM18.6389 30.7152C18.4888 30.1461 18.2528 29.6201 17.9208 29.1519L15.9819 30.5267C16.1327 30.7394 16.2558 30.9995 16.3408 31.3217L18.6389 30.7152ZM17.9347 29.1721C17.5968 28.674 17.1607 28.2723 16.6342 27.9818L15.486 30.0629C15.6774 30.1685 15.8356 30.3115 15.968 30.5066L17.9347 29.1721ZM16.6418 27.986C16.0821 27.6718 15.4599 27.5368 14.816 27.5368V29.9136C15.1252 29.9136 15.3324 29.9767 15.4783 30.0586L16.6418 27.986ZM14.816 27.5368C14.1747 27.5368 13.557 27.6732 12.9977 27.9818L14.1459 30.0629C14.3047 29.9753 14.5164 29.9136 14.816 29.9136V27.5368ZM12.9901 27.986C12.4739 28.2758 12.0446 28.673 11.7053 29.1602L13.6558 30.5185C13.7993 30.3124 13.9641 30.165 14.1536 30.0586L12.9901 27.986ZM11.7028 29.1638C11.381 29.6296 11.151 30.1516 11.0023 30.7152L13.3004 31.3217C13.3869 30.9941 13.5097 30.7299 13.6583 30.5149L11.7028 29.1638ZM11.0033 30.7112C10.8566 31.2593 10.7865 31.8306 10.7865 32.4204H13.1633C13.1633 32.0199 13.2108 31.6565 13.2993 31.3257L11.0033 30.7112ZM23.2741 29.6444H24.4625V29.6187L24.4614 29.593L23.2741 29.6444ZM23.2741 37.5454V38.7338H24.4625V37.5454H23.2741ZM21.5564 37.5454H20.368V38.7338H21.5564V37.5454ZM21.5564 27.4997V26.3113H20.368V27.4997H21.5564ZM23.1812 27.4997L24.3685 27.4483L24.3193 26.3113H23.1812V27.4997ZM22.8655 32.1419L22.8193 33.3294L24.054 33.3775V32.1419H22.8655ZM22.1506 32.114L20.9623 32.1033L20.9519 33.2566L22.1044 33.3015L22.1506 32.114ZM22.457 30.2107L23.582 30.5937L23.5833 30.5901L22.457 30.2107ZM24.5739 27.6761L25.0838 28.7495L25.0894 28.7468L24.5739 27.6761ZM27.5727 27.5182L27.1864 28.6421L27.1943 28.6448L27.2022 28.6474L27.5727 27.5182ZM28.5847 28.1496L27.7263 28.9715L27.7354 28.9808L28.5847 28.1496ZM29.2347 29.2823L28.1028 29.6445L28.1042 29.6489L29.2347 29.2823ZM29.4575 37.5454V38.7338H30.6459V37.5454H29.4575ZM27.7306 37.5454H26.5422V38.7338H27.7306V37.5454ZM27.4985 29.6815L26.4274 30.1965L26.4314 30.2046L27.4985 29.6815ZM26.8207 28.9852L26.2892 30.0481L26.2982 30.0526L26.3072 30.0569L26.8207 28.9852ZM24.5553 29.0316L24.0164 27.9724L24.0088 27.9763L24.5553 29.0316ZM23.6547 29.7744L22.7285 29.0297L22.724 29.0353L22.7196 29.0409L23.6547 29.7744ZM23.0698 30.8606L21.9475 30.4695L21.9441 30.4796L23.0698 30.8606ZM22.0857 29.6444V37.5454H24.4625V29.6444H22.0857ZM23.2741 36.357H21.5564V38.7338H23.2741V36.357ZM22.7448 37.5454V27.4997H20.368V37.5454H22.7448ZM21.5564 28.6881H23.1812V26.3113H21.5564V28.6881ZM21.9939 27.5511L22.0868 29.6958L24.4614 29.593L24.3685 27.4483L21.9939 27.5511ZM22.9118 30.9544L22.1969 30.9265L22.1044 33.3015L22.8193 33.3294L22.9118 30.9544ZM23.339 32.1247C23.3442 31.5496 23.4293 31.0424 23.582 30.5937L21.332 29.8277C21.0886 30.5427 20.9695 31.3044 20.9623 32.1033L23.339 32.1247ZM23.5833 30.5901C23.7396 30.1261 23.9508 29.747 24.2077 29.437L22.3775 27.9206C21.9164 28.4771 21.5706 29.1194 21.3308 29.8314L23.5833 30.5901ZM24.2077 29.437C24.4592 29.1335 24.7492 28.9084 25.0838 28.7495L24.064 26.6026C23.4082 26.9141 22.844 27.3576 22.3775 27.9206L24.2077 29.437ZM25.0894 28.7468C25.4159 28.5897 25.7914 28.5024 26.2358 28.5024V26.1256C25.467 26.1256 24.7346 26.2797 24.0583 26.6053L25.0894 28.7468ZM26.2358 28.5024C26.6228 28.5024 26.9349 28.5556 27.1864 28.6421L27.9591 26.3944C27.4183 26.2085 26.8391 26.1256 26.2358 26.1256V28.5024ZM27.2022 28.6474C27.4197 28.7188 27.5876 28.8265 27.7264 28.9714L29.4431 27.3277C29.0248 26.8908 28.518 26.5777 27.9433 26.3891L27.2022 28.6474ZM27.7354 28.9808C27.8676 29.1159 27.9996 29.322 28.1028 29.6445L30.3665 28.9201C30.1726 28.3141 29.8713 27.7651 29.4341 27.3183L27.7354 28.9808ZM28.1042 29.6489C28.203 29.9534 28.2691 30.3817 28.2691 30.9628H30.6459C30.6459 30.2192 30.5634 29.5272 30.3651 28.9156L28.1042 29.6489ZM28.2691 30.9628V37.5454H30.6459V30.9628H28.2691ZM29.4575 36.357H27.7306V38.7338H29.4575V36.357ZM28.919 37.5454V30.9442H26.5422V37.5454H28.919ZM28.919 30.9442C28.919 30.3191 28.8298 29.6975 28.5656 29.1584L26.4314 30.2046C26.4766 30.2968 26.5422 30.517 26.5422 30.9442H28.919ZM28.5695 29.1666C28.3082 28.623 27.8961 28.1827 27.3342 27.9135L26.3072 30.0569C26.3395 30.0724 26.3793 30.0963 26.4274 30.1964L28.5695 29.1666ZM27.3522 27.9222C26.8477 27.67 26.2888 27.5739 25.7251 27.5739V29.9508C26.028 29.9508 26.1995 30.0033 26.2892 30.0481L27.3522 27.9222ZM25.7251 27.5739C25.1259 27.5739 24.5491 27.7014 24.0164 27.9724L25.0942 30.0908C25.2671 30.0028 25.4703 29.9508 25.7251 29.9508V27.5739ZM24.0088 27.9763C23.5098 28.2347 23.0819 28.5902 22.7285 29.0297L24.5809 30.519C24.7351 30.3272 24.9075 30.1875 25.1018 30.0869L24.0088 27.9763ZM22.7196 29.0409C22.3851 29.4674 22.1297 29.9471 21.9476 30.4696L24.192 31.2517C24.2947 30.9571 24.4291 30.7126 24.5898 30.5078L22.7196 29.0409ZM21.9441 30.4796C21.7638 31.0123 21.6771 31.5688 21.6771 32.1419H24.054C24.054 31.8113 24.1034 31.5136 24.1955 31.2416L21.9441 30.4796ZM33.9326 23.2845H35.121V22.0961H33.9326V23.2845ZM33.9326 37.5454V38.7338H35.121V37.5454H33.9326ZM32.2057 37.5454H31.0173V38.7338H32.2057V37.5454ZM32.2057 23.2845V22.0961H31.0173V23.2845H32.2057ZM32.7442 23.2845V37.5454H35.121V23.2845H32.7442ZM33.9326 36.357H32.2057V38.7338H33.9326V36.357ZM33.3941 37.5454V23.2845H31.0173V37.5454H33.3941ZM32.2057 24.4729H33.9326V22.0961H32.2057V24.4729ZM38.5562 27.4997H39.7446V26.3113H38.5562V27.4997ZM38.5562 37.5454V38.7338H39.7446V37.5454H38.5562ZM36.8293 37.5454H35.6409V38.7338H36.8293V37.5454ZM36.8293 27.4997V26.3113H35.6409V27.4997H36.8293ZM36.95 24.1294L36.0681 23.3329L36.0609 23.3408L36.0539 23.3489L36.95 24.1294ZM38.4634 24.1294L37.5815 24.926L37.5884 24.9337L37.5955 24.9413L38.4634 24.1294ZM38.4634 25.5221L37.5955 24.7102L37.5946 24.7112L38.4634 25.5221ZM36.95 25.5221L36.0539 26.3026L36.0673 26.318L36.0812 26.333L36.95 25.5221ZM37.3678 27.4997V37.5454H39.7446V27.4997H37.3678ZM38.5562 36.357H36.8293V38.7338H38.5562V36.357ZM38.0177 37.5454V27.4997H35.6409V37.5454H38.0177ZM36.8293 28.6881H38.5562V26.3113H36.8293V28.6881ZM37.8877 24.835C37.8877 24.8157 37.8904 24.8235 37.8818 24.8476C37.8778 24.859 37.8722 24.8711 37.8652 24.883C37.8583 24.8949 37.8514 24.9039 37.8462 24.9099L36.0539 23.3489C35.6799 23.7782 35.5109 24.2988 35.5109 24.835H37.8877ZM37.8319 24.926C37.8109 24.9493 37.7862 24.9709 37.7592 24.989C37.7325 25.007 37.7084 25.0184 37.6906 25.0252C37.656 25.0382 37.6556 25.03 37.7113 25.03V22.6532C37.1454 22.6532 36.5283 22.8233 36.0681 23.3329L37.8319 24.926ZM37.7113 25.03C37.7614 25.03 37.7573 25.0375 37.7206 25.0235C37.7018 25.0163 37.6777 25.0046 37.6514 24.9868C37.625 24.9688 37.6013 24.948 37.5815 24.926L39.3453 23.3329C38.8892 22.8279 38.279 22.6532 37.7113 22.6532V25.03ZM37.5955 24.9413C37.5847 24.9298 37.5674 24.906 37.555 24.8734C37.543 24.8421 37.5442 24.8252 37.5442 24.835H39.921C39.921 24.2749 39.7299 23.7437 39.3312 23.3176L37.5955 24.9413ZM37.5442 24.835C37.5442 24.832 37.5453 24.8074 37.5588 24.7728C37.5725 24.7379 37.5896 24.7166 37.5955 24.7102L39.3312 26.334C39.7196 25.9188 39.921 25.3983 39.921 24.835H37.5442ZM37.5946 24.7112C37.6157 24.6885 37.6402 24.6679 37.6664 24.6507C37.6924 24.6336 37.7156 24.6229 37.7326 24.6166C37.7656 24.6044 37.7654 24.6122 37.7113 24.6122V26.989C38.2674 26.989 38.8732 26.8247 39.3322 26.333L37.5946 24.7112ZM37.7113 24.6122C37.6517 24.6122 37.6479 24.6037 37.6786 24.6149C37.6948 24.6208 37.7178 24.6313 37.7443 24.6485C37.771 24.6659 37.7964 24.6872 37.8188 24.7112L36.0812 26.333C36.5443 26.8291 37.1569 26.989 37.7113 26.989V24.6122ZM37.8462 24.7416C37.854 24.7506 37.8681 24.7708 37.8784 24.7991C37.8884 24.8266 37.8877 24.8419 37.8877 24.835H35.5109C35.5109 25.3737 35.689 25.8838 36.0539 26.3026L37.8462 24.7416ZM43.0313 29.6444H44.2197V29.6187L44.2186 29.593L43.0313 29.6444ZM43.0313 37.5454V38.7338H44.2197V37.5454H43.0313ZM41.3137 37.5454H40.1253V38.7338H41.3137V37.5454ZM41.3137 27.4997V26.3113H40.1253V27.4997H41.3137ZM42.9385 27.4997L44.1258 27.4483L44.0765 26.3113H42.9385V27.4997ZM42.6228 32.1419L42.5765 33.3294L43.8112 33.3775V32.1419H42.6228ZM41.9079 32.114L40.7195 32.1033L40.7091 33.2566L41.8616 33.3015L41.9079 32.114ZM42.2143 30.2107L43.3393 30.5937L43.3405 30.5901L42.2143 30.2107ZM44.3311 27.6761L44.841 28.7495L44.8467 28.7468L44.3311 27.6761ZM47.33 27.5182L46.9437 28.6421L46.9516 28.6448L46.9595 28.6474L47.33 27.5182ZM48.342 28.1496L47.4835 28.9715L47.4927 28.9808L48.342 28.1496ZM48.9919 29.2823L47.86 29.6445L47.8615 29.6489L48.9919 29.2823ZM49.2147 37.5454V38.7338H50.4031V37.5454H49.2147ZM47.4878 37.5454H46.2994V38.7338H47.4878V37.5454ZM47.2557 29.6815L46.1846 30.1965L46.1886 30.2046L47.2557 29.6815ZM46.578 28.9852L46.0465 30.0481L46.0554 30.0526L46.0644 30.0569L46.578 28.9852ZM44.3126 29.0316L43.7737 27.9724L43.7661 27.9763L44.3126 29.0316ZM43.412 29.7744L42.4858 29.0297L42.4813 29.0353L42.4769 29.0409L43.412 29.7744ZM42.827 30.8606L41.7048 30.4695L41.7014 30.4796L42.827 30.8606ZM41.8429 29.6444V37.5454H44.2197V29.6444H41.8429ZM43.0313 36.357H41.3137V38.7338H43.0313V36.357ZM42.5021 37.5454V27.4997H40.1253V37.5454H42.5021ZM41.3137 28.6881H42.9385V26.3113H41.3137V28.6881ZM41.7512 27.5511L41.844 29.6958L44.2186 29.593L44.1258 27.4483L41.7512 27.5511ZM42.6691 30.9544L41.9542 30.9265L41.8616 33.3015L42.5765 33.3294L42.6691 30.9544ZM43.0962 32.1247C43.1014 31.5496 43.1865 31.0424 43.3393 30.5937L41.0893 29.8277C40.8459 30.5427 40.7267 31.3044 40.7195 32.1033L43.0962 32.1247ZM43.3405 30.5901C43.4968 30.1261 43.7081 29.747 43.965 29.437L42.1348 27.9206C41.6737 28.4771 41.3279 29.1194 41.088 29.8314L43.3405 30.5901ZM43.965 29.437C44.2165 29.1335 44.5065 28.9084 44.841 28.7495L43.8212 26.6026C43.1654 26.9141 42.6013 27.3576 42.1348 27.9206L43.965 29.437ZM44.8467 28.7468C45.1731 28.5897 45.5486 28.5024 45.993 28.5024V26.1256C45.2243 26.1256 44.4919 26.2797 43.8156 26.6053L44.8467 28.7468ZM45.993 28.5024C46.3801 28.5024 46.6921 28.5556 46.9437 28.6421L47.7163 26.3944C47.1756 26.2085 46.5963 26.1256 45.993 26.1256V28.5024ZM46.9595 28.6474C47.177 28.7188 47.3448 28.8265 47.4836 28.9714L49.2004 27.3277C48.7821 26.8908 48.2753 26.5777 47.7005 26.3891L46.9595 28.6474ZM47.4927 28.9808C47.6249 29.1159 47.7568 29.322 47.86 29.6445L50.1238 28.9201C49.9299 28.3141 49.6286 27.7651 49.1913 27.3183L47.4927 28.9808ZM47.8615 29.6489C47.9602 29.9534 48.0263 30.3817 48.0263 30.9628H50.4031C50.4031 30.2192 50.3207 29.5272 50.1223 28.9156L47.8615 29.6489ZM48.0263 30.9628V37.5454H50.4031V30.9628H48.0263ZM49.2147 36.357H47.4878V38.7338H49.2147V36.357ZM48.6762 37.5454V30.9442H46.2994V37.5454H48.6762ZM48.6762 30.9442C48.6762 30.3191 48.5871 29.6975 48.3228 29.1584L46.1886 30.2046C46.2338 30.2968 46.2994 30.517 46.2994 30.9442H48.6762ZM48.3268 29.1666C48.0654 28.623 47.6534 28.1827 47.0915 27.9135L46.0644 30.0569C46.0968 30.0724 46.1365 30.0963 46.1847 30.1964L48.3268 29.1666ZM47.1094 27.9222C46.6049 27.67 46.0461 27.5739 45.4824 27.5739V29.9508C45.7853 29.9508 45.9568 30.0033 46.0465 30.0481L47.1094 27.9222ZM45.4824 27.5739C44.8831 27.5739 44.3064 27.7014 43.7737 27.9724L44.8514 30.0908C45.0244 30.0028 45.2275 29.9508 45.4824 29.9508V27.5739ZM43.7661 27.9763C43.2671 28.2347 42.8391 28.5902 42.4858 29.0297L44.3382 30.519C44.4924 30.3272 44.6648 30.1875 44.859 30.0869L43.7661 27.9763ZM42.4769 29.0409C42.1424 29.4674 41.8869 29.9471 41.7048 30.4696L43.9493 31.2517C44.0519 30.9571 44.1864 30.7126 44.3471 30.5078L42.4769 29.0409ZM41.7014 30.4796C41.5211 31.0123 41.4344 31.5688 41.4344 32.1419H43.8112C43.8112 31.8113 43.8607 31.5136 43.9527 31.2416L41.7014 30.4796ZM54.0891 37.3783L53.6209 38.4706L53.6281 38.4737L53.6354 38.4767L54.0891 37.3783ZM52.6314 36.3663L51.7605 37.175L51.7667 37.1816L52.6314 36.3663ZM51.703 34.8251L50.5864 35.2321L51.703 34.8251ZM51.7401 30.3036L52.8515 30.7244L52.8528 30.7208L51.7401 30.3036ZM52.7242 28.6695L51.8542 27.8599L52.7242 28.6695ZM57.6264 27.6854L57.1155 28.7583L57.1204 28.7606L57.6264 27.6854ZM58.9169 28.7252L57.9662 29.4383L57.971 29.4446L58.9169 28.7252ZM59.6597 30.285L58.5118 30.5927L58.5126 30.5957L59.6597 30.285ZM59.9011 33.0053V34.1937H61.0895V33.0053H59.9011ZM52.3993 33.0053H51.2109V34.1937H52.3993V33.0053ZM52.3993 31.6034V30.415H51.2109V31.6034H52.3993ZM58.1835 31.6034V32.7918H59.3719V31.6034H58.1835ZM58.1835 31.4734H59.3719V31.4404L59.3701 31.4075L58.1835 31.4734ZM57.9049 30.1736L56.7895 30.5837L56.7922 30.5908L56.7949 30.598L57.9049 30.1736ZM54.6925 28.9759L55.2159 30.0428L55.224 30.0389L55.232 30.0348L54.6925 28.9759ZM53.2999 34.2216L52.1644 34.5723L52.1675 34.5823L52.1708 34.5923L53.2999 34.2216ZM53.8848 35.3171L52.9585 36.0618L52.9674 36.0726L53.8848 35.3171ZM54.8225 36.0599L54.2983 37.1265L54.3054 37.1299L54.8225 36.0599ZM58.7313 34.9643L59.4706 34.0339L58.5206 33.279L57.7856 34.2445L58.7313 34.9643ZM59.7711 35.7907L60.7628 36.4455L61.3626 35.5373L60.5105 34.8602L59.7711 35.7907ZM57.71 37.4526L57.2881 36.3416L57.2834 36.3434L57.71 37.4526ZM55.9924 36.5427C55.4277 36.5427 54.9501 36.4482 54.5427 36.2799L53.6354 38.4767C54.3668 38.7788 55.1582 38.9195 55.9924 38.9195V36.5427ZM54.5572 36.286C54.1392 36.1069 53.7895 35.8623 53.4961 35.551L51.7667 37.1816C52.2903 37.7369 52.9123 38.1669 53.6209 38.4706L54.5572 36.286ZM53.5023 35.5576C53.2151 35.2484 52.9856 34.8738 52.8195 34.418L50.5864 35.2321C50.8535 35.9647 51.243 36.6176 51.7605 37.1749L53.5023 35.5576ZM52.8195 34.418C52.6556 33.9685 52.5664 33.4581 52.5664 32.8753H50.1896C50.1896 33.7038 50.3171 34.4933 50.5864 35.2321L52.8195 34.418ZM52.5664 32.8753V32.4854H50.1896V32.8753H52.5664ZM52.5664 32.4854C52.5664 31.7843 52.67 31.2037 52.8515 30.7244L50.6287 29.8827C50.3274 30.6785 50.1896 31.5524 50.1896 32.4854H52.5664ZM52.8528 30.7208C53.0467 30.2038 53.2981 29.7973 53.5942 29.4791L51.8542 27.8599C51.321 28.433 50.9162 29.1159 50.6274 29.8863L52.8528 30.7208ZM53.5942 29.4791C53.9046 29.1456 54.2424 28.9071 54.6098 28.7472L53.6612 26.5679C52.9763 26.866 52.3733 27.3021 51.8542 27.8599L53.5942 29.4791ZM54.6098 28.7472C54.9891 28.582 55.3726 28.5024 55.7695 28.5024V26.1256C55.04 26.1256 54.334 26.275 53.6612 26.5679L54.6098 28.7472ZM55.7695 28.5024C56.3533 28.5024 56.7895 28.6031 57.1155 28.7583L58.1374 26.6124C57.4234 26.2724 56.6218 26.1256 55.7695 26.1256V28.5024ZM57.1204 28.7606C57.4789 28.9293 57.7536 29.1547 57.9662 29.4383L59.8677 28.0122C59.4118 27.4044 58.8262 26.9365 58.1324 26.6101L57.1204 28.7606ZM57.971 29.4446C58.2008 29.7467 58.3858 30.1227 58.5118 30.5927L60.8076 29.9773C60.6117 29.2465 60.3016 28.5826 59.8629 28.0058L57.971 29.4446ZM58.5126 30.5957C58.6425 31.0751 58.7127 31.6191 58.7127 32.2347H61.0895C61.0895 31.4392 60.9988 30.6833 60.8068 29.9743L58.5126 30.5957ZM58.7127 32.2347V33.0053H61.0895V32.2347H58.7127ZM59.9011 31.8169H52.3993V34.1937H59.9011V31.8169ZM53.5877 33.0053V31.6034H51.2109V33.0053H53.5877ZM52.3993 32.7918H58.1835V30.415H52.3993V32.7918ZM59.3719 31.6034V31.4734H56.9951V31.6034H59.3719ZM59.3701 31.4075C59.3384 30.8379 59.2194 30.2838 59.015 29.7492L56.7949 30.598C56.9124 30.9052 56.979 31.2176 56.9969 31.5393L59.3701 31.4075ZM59.0204 29.7635C58.7931 29.1453 58.4193 28.6175 57.9046 28.2057L56.4198 30.0617C56.586 30.1947 56.7073 30.3601 56.7895 30.5837L59.0204 29.7635ZM57.9046 28.2057C57.2903 27.7143 56.5336 27.5368 55.7695 27.5368V29.9136C56.1815 29.9136 56.3532 30.0085 56.4198 30.0617L57.9046 28.2057ZM55.7695 27.5368C55.2035 27.5368 54.6581 27.6597 54.1531 27.917L55.232 30.0348C55.3831 29.9578 55.5557 29.9136 55.7695 29.9136V27.5368ZM54.1691 27.909C53.6529 28.1622 53.2264 28.536 52.8881 28.9989L54.8072 30.4013C54.9393 30.2204 55.0761 30.1114 55.2159 30.0428L54.1691 27.909ZM52.8881 28.9989C52.5535 29.4568 52.316 29.9854 52.1555 30.5588L54.4443 31.1996C54.5437 30.8445 54.6714 30.5871 54.8072 30.4013L52.8881 28.9989ZM52.1555 30.5588C51.9899 31.1501 51.9165 31.7971 51.9165 32.4854H54.2933C54.2933 31.9606 54.3499 31.5367 54.4443 31.1996L52.1555 30.5588ZM51.9165 32.4854V32.8753H54.2933V32.4854H51.9165ZM51.9165 32.8753C51.9165 33.4611 51.9966 34.0289 52.1644 34.5723L54.4354 33.8709C54.3432 33.5725 54.2933 33.2428 54.2933 32.8753H51.9165ZM52.1708 34.5923C52.3481 35.1322 52.6085 35.6263 52.9586 36.0618L54.811 34.5725C54.6535 34.3767 54.524 34.1403 54.429 33.8508L52.1708 34.5923ZM52.9674 36.0726C53.3343 36.5181 53.7807 36.872 54.2983 37.1264L55.3467 34.9934C55.134 34.8888 54.9552 34.7476 54.8022 34.5617L52.9674 36.0726ZM54.3054 37.1299C54.8593 37.3976 55.4609 37.5176 56.0852 37.5176V35.1407C55.7687 35.1407 55.5285 35.0812 55.3397 34.9899L54.3054 37.1299ZM56.0852 37.5176C56.8528 37.5176 57.5861 37.3603 58.229 36.9821L57.0239 34.9334C56.825 35.0504 56.5308 35.1407 56.0852 35.1407V37.5176ZM58.229 36.9821C58.7917 36.6511 59.2741 36.2133 59.6769 35.6841L57.7856 34.2445C57.5571 34.5448 57.3029 34.7693 57.0239 34.9334L58.229 36.9821ZM57.9919 35.8948L59.0318 36.7211L60.5105 34.8602L59.4706 34.0339L57.9919 35.8948ZM58.7794 35.1358C58.6269 35.3667 58.4227 35.6025 58.1553 35.8402L59.7343 37.6166C60.1354 37.2601 60.482 36.8707 60.7628 36.4455L58.7794 35.1358ZM58.1553 35.8402C57.9456 36.0265 57.6645 36.1986 57.2881 36.3416L58.1319 38.5636C58.7334 38.3351 59.2755 38.0245 59.7343 37.6166L58.1553 35.8402ZM57.2834 36.3434C56.9689 36.4643 56.5478 36.5427 55.9924 36.5427V38.9195C56.7615 38.9195 57.4854 38.8122 58.1366 38.5618L57.2834 36.3434Z" fill="white"/>
</svg>
